<svg id="Сгруппировать_71" data-name="Сгруппировать 71" xmlns="http://www.w3.org/2000/svg" width="85" height="85" viewBox="0 0 85 85">
  <path id="Контур_1" data-name="Контур 1" d="M6161.256,3259.79a42.5,42.5,0,0,0,.122-85h-.243a42.5,42.5,0,0,0,.121,85Z" transform="translate(-6118.754 -3174.79)" fill="#be1d25" fill-rule="evenodd"/>
  <path id="Контур_2" data-name="Контур 2" d="M6147.99,3189.8c1.485-2.361,2.473-3.926,5.3-3.926,4.345,0,4.345,4.571,4.345,5.765v34.041h-5.183V3192.65l-18.844,29.687,0,0-.218.342,0,0c-1.148,1.795-2.2,3.434-4.943,3.434a3.764,3.764,0,0,1-3.726-2.292,7.662,7.662,0,0,1-.558-3.164v-34.365h5.179v33.168l18.316-29.126,0,0,.334-.532Zm12.368-3.5h23.325a5.761,5.761,0,0,1,2.861.583l0,0a3.533,3.533,0,0,1,1.738,3.388,6.881,6.881,0,0,1-.519,2.529,8.979,8.979,0,0,1-.709,1.409l-.01.019-19.608,30.925-.344.537h-5.965l1.118-1.773,20.193-32.036a4.788,4.788,0,0,0,.378-.714H6159.2v-4.861Z" transform="translate(-6111.854 -3160.629)" fill="#fff" fill-rule="evenodd"/>
</svg>
