<svg xmlns="http://www.w3.org/2000/svg" width="30" height="30.002" viewBox="0 0 30 30.002">
  <g id="Сгруппировать_91" data-name="Сгруппировать 91" transform="translate(-118.347 -1218.921)">
    <path id="Контур_212" data-name="Контур 212" d="M62.243,559.136a3.743,3.743,0,1,1,3.744,3.744,3.745,3.745,0,0,1-3.744-3.744" transform="translate(60.005 674.785)" fill="#fff"/>
    <path id="Контур_258" data-name="Контур 258" d="M75.349,549.921a15,15,0,1,0,15,15,15,15,0,0,0-15-15" transform="translate(58 669)" fill="#233d91"/>
    <path id="Контур_260" data-name="Контур 260" d="M61.965,559.143a4.029,4.029,0,1,1,4.03,4.03,4.031,4.031,0,0,1-4.03-4.03" transform="translate(59.711 674.492)" fill="#ececec"/>
    <path id="Контур_261" data-name="Контур 261" d="M77.959,563.788l-3.734,1.4-8.69-2.936,4.135-4.61L76.694,560Z" transform="translate(63.485 677.162)" fill="#ececec"/>
    <path id="Контур_262" data-name="Контур 262" d="M76.759,558.509l-7.227,1.64-3.65-5.014,8.943-2.039,3.576,1.775Z" transform="translate(63.852 672.357)" fill="#ececec"/>
  </g>
</svg>
