<svg xmlns="http://www.w3.org/2000/svg" width="75.564" height="13.619" viewBox="0 0 75.564 13.619">
  <g id="Сгруппировать_72" data-name="Сгруппировать 72" transform="translate(-138.985 -1223.021)">
    <path id="Контур_111" data-name="Контур 111" d="M104.857,564.2l0,0a4.132,4.132,0,1,1,0-6.137h0a1.284,1.284,0,0,0,1.81-.132,1.241,1.241,0,0,0-.088-1.777,6.7,6.7,0,1,0,0,9.957,1.241,1.241,0,0,0,.088-1.777,1.284,1.284,0,0,0-1.81-.132" transform="translate(73.772 668.595)" fill="#233d91"/>
    <path id="Контур_123" data-name="Контур 123" d="M108.163,554.425a6.705,6.705,0,1,0,6.7,6.705,6.706,6.706,0,0,0-6.7-6.705m4.132,6.705A4.133,4.133,0,1,1,108.163,557a4.132,4.132,0,0,1,4.132,4.132" transform="translate(80.425 668.805)" fill="#233d91"/>
    <path id="Контур_125" data-name="Контур 125" d="M90.009,555.508a1.279,1.279,0,1,0-2.558,0v10.64a1.279,1.279,0,1,0,2.558,0Z" transform="translate(65.082 669)" fill="#233d91"/>
    <path id="Контур_131" data-name="Контур 131" d="M92.218,559.623h0s0-.01,0-.036v-2.762c0-.036.006-.04.04-.04h3.807a1.4,1.4,0,0,1,1.4,1.377,1.47,1.47,0,0,1-1.4,1.464H92.251a.086.086,0,0,1-.034,0m-.006,2.4c0-.033.006-.04.04-.04H95.1c.05,0,.067.013.094.063l2.137,4.637a1.279,1.279,0,0,0,2.324-1.071l-1.766-3.83.019-.015a3.647,3.647,0,0,0,2.116-3.575,3.894,3.894,0,0,0-3.987-3.964H90.914a1.267,1.267,0,0,0-1.261,1.328v10.59a1.279,1.279,0,1,0,2.558,0Z" transform="translate(67.494 669)" fill="#233d91"/>
    <path id="Контур_162" data-name="Контур 162" d="M117.436,567.675a2.027,2.027,0,0,0,1.829-1.161l3.929-8.27a.094.094,0,0,1,.09-.057.1.1,0,0,1,.1.1v8.065a1.28,1.28,0,1,0,2.558,0v-9.628a2.257,2.257,0,0,0-4.358-.817l-4.059,8.564a.1.1,0,0,1-.092.061h0a.107.107,0,0,1-.094-.061l-4.059-8.564a2.256,2.256,0,0,0-4.356.817v9.628a1.32,1.32,0,0,0,1.32,1.32,1.253,1.253,0,0,0,1.238-1.32V558.29a.1.1,0,0,1,.1-.1.094.094,0,0,1,.09.057l3.929,8.27a2.025,2.025,0,0,0,1.829,1.161Z" transform="translate(88.603 668.86)" fill="#233d91"/>
    <path id="Контур_165" data-name="Контур 165" d="M85.276,562.325l1.565-3.69,1.567,3.69Zm7.321,3.319-4.52-10.636a1.368,1.368,0,0,0-2.47,0l-4.52,10.636a1.279,1.279,0,1,0,2.355,1l.748-1.76h5.3l.748,1.76a1.279,1.279,0,1,0,2.355-1" transform="translate(58 669.001)" fill="#233d91"/>
  </g>
</svg>
