<svg xmlns="http://www.w3.org/2000/svg" width="118.775" height="13.823" viewBox="0 0 118.775 13.823">
  <g id="Сгруппировать_76" data-name="Сгруппировать 76" transform="translate(-136.19 -1252.709)">
    <path id="Контур_105" data-name="Контур 105" d="M101.766,591.716v-6.74a1.242,1.242,0,0,0-2.485,0v6.781a2.452,2.452,0,0,1-4.9-.041h0v-6.74a1.242,1.242,0,0,0-2.485,0v6.74l0,0a4.938,4.938,0,0,0,9.876,0Z" transform="translate(72.181 669.026)" fill="#233d91"/>
    <path id="Контур_117" data-name="Контур 117" d="M82.358,591.624l1.522-3.584,1.52,3.584Zm7.111,3.224-4.39-10.33a1.329,1.329,0,0,0-2.4,0l-4.39,10.33a1.242,1.242,0,1,0,2.287.971l.727-1.71h5.151l.727,1.71a1.242,1.242,0,1,0,2.287-.971" transform="translate(58 669.053)" fill="#233d91"/>
    <path id="Контур_118" data-name="Контур 118" d="M101.752,591.624l1.522-3.584,1.52,3.584Zm7.111,3.224-4.39-10.33a1.329,1.329,0,0,0-2.4,0l-4.39,10.33a1.242,1.242,0,1,0,2.287.971l.727-1.71h5.151l.727,1.71a1.242,1.242,0,1,0,2.287-.971" transform="translate(78.075 669.053)" fill="#233d91"/>
    <path id="Контур_132" data-name="Контур 132" d="M117.593,588.8h0s0-.01,0-.035v-2.6c0-.033.006-.037.039-.037h3.588a1.314,1.314,0,0,1,1.317,1.3,1.386,1.386,0,0,1-1.317,1.382h-3.588a.084.084,0,0,1-.033,0m-.006,2.261c0-.033.006-.039.039-.039h2.682c.049,0,.065.012.09.059l2.015,4.372a1.206,1.206,0,0,0,2.19-1.01l-1.665-3.61.018-.014a3.433,3.433,0,0,0,1.994-3.368,3.67,3.67,0,0,0-3.759-3.737h-4.827a1.2,1.2,0,0,0-1.189,1.252v9.982a1.206,1.206,0,1,0,2.412,0Z" transform="translate(96.284 669.001)" fill="#233d91"/>
    <path id="Контур_168" data-name="Контур 168" d="M117.178,591.088a1.206,1.206,0,0,0,0-2.411H112.04V586.17h5.139a1.206,1.206,0,0,0,0-2.412h-6.345a1.206,1.206,0,0,0-1.111.737,1.232,1.232,0,0,0-.1.468v10.031a1.206,1.206,0,0,0,1.207,1.2h6.345a1.206,1.206,0,0,0,0-2.411H112.04v-2.7Z" transform="translate(90.54 669.051)" fill="#233d91"/>
    <path id="Контур_188" data-name="Контур 188" d="M108.778,596.731a5.777,5.777,0,0,1-4.314-1.96,1.229,1.229,0,0,1,1.832-1.638,3.289,3.289,0,0,0,1.872,1.081,2.062,2.062,0,0,0,2.017-.507,1.256,1.256,0,0,0,.236-1.258,2.523,2.523,0,0,0-2.1-1.321,4.211,4.211,0,0,1-3.623-2.821,3.574,3.574,0,0,1,1.091-3.627,4.452,4.452,0,0,1,4.78-.521,6.126,6.126,0,0,1,1.467.861,1.228,1.228,0,1,1-1.461,1.974,3.857,3.857,0,0,0-.957-.57,2.066,2.066,0,0,0-2.2.094,1.106,1.106,0,0,0-.362,1.113c.151.527.761.918,1.673,1.074a4.854,4.854,0,0,1,4,2.9,3.732,3.732,0,0,1-.674,3.688,4.2,4.2,0,0,1-3.279,1.433" transform="translate(84.873 669.001)" fill="#233d91"/>
    <g id="Сгруппировать_29" data-name="Сгруппировать 29" transform="translate(148.777 1252.915)">
      <path id="Контур_191" data-name="Контур 191" d="M90.034,587.622c-.228-.287-.849-.175-1.386.252s-.788,1.005-.562,1.292l3.429,4.32c.226.287.847.175,1.384-.25s.79-1.007.562-1.294Z" transform="translate(-80.619 -580.029)" fill="#233d91"/>
      <path id="Контур_192" data-name="Контур 192" d="M90.887,583.81a6.512,6.512,0,1,0,6.51,6.512,6.513,6.513,0,0,0-6.51-6.512m4.015,6.512a4.014,4.014,0,1,1-4.015-4.013,4.015,4.015,0,0,1,4.015,4.013" transform="translate(-84.375 -583.81)" fill="#233d91"/>
    </g>
    <path id="Контур_193" data-name="Контур 193" d="M136.666,583.709a6.512,6.512,0,1,0,6.51,6.512,6.513,6.513,0,0,0-6.51-6.512m4.013,6.512a4.014,4.014,0,1,1-4.013-4.013,4.014,4.014,0,0,1,4.013,4.013" transform="translate(111.789 669)" fill="#233d91"/>
    <path id="Контур_195" data-name="Контур 195" d="M129.163,596.2a1.915,1.915,0,0,0,1.724-1.095l3.7-7.794a.092.092,0,0,1,.085-.055.1.1,0,0,1,.1.1v7.6a1.207,1.207,0,1,0,2.414,0v-9.075a2.128,2.128,0,0,0-4.109-.769l-3.826,8.071a.1.1,0,0,1-.085.057h0a.106.106,0,0,1-.09-.057l-3.826-8.071a2.125,2.125,0,0,0-4.1.769v9.075a1.244,1.244,0,0,0,1.243,1.245,1.18,1.18,0,0,0,1.166-1.245v-7.6a.1.1,0,0,1,.1-.1.09.09,0,0,1,.085.055l3.7,7.794a1.913,1.913,0,0,0,1.726,1.095Z" transform="translate(102.459 669.051)" fill="#233d91"/>
  </g>
</svg>
