<svg xmlns="http://www.w3.org/2000/svg" width="29.955" height="29.954" viewBox="0 0 29.955 29.954">
  <path id="Контур_277" data-name="Контур 277" d="M6152.736,3481.881a12.905,12.905,0,0,1-.6,5.995H6144.2l-.163,1.325-5.8,1.506-5.052-1.411.164-1.36h-6.519a13.428,13.428,0,0,1-.738-4.369,13.1,13.1,0,0,1,.124-1.722l8.389-.024,1.1-6.5,5.27-1.192-1,5.3,6.09-1.414-.631,3.862Zm1.709,1.7a14.978,14.978,0,1,0-14.978,14.976,14.977,14.977,0,0,0,14.978-14.976" transform="translate(-6124.49 -3468.604)" fill="#be1d25"/>
</svg>
