<svg xmlns="http://www.w3.org/2000/svg" width="112.566" height="13.646" viewBox="0 0 112.566 13.646">
  <g id="Сгруппировать_67" data-name="Сгруппировать 67" transform="translate(-467.044 -704.207)">
    <path id="Контур_30" data-name="Контур 30" d="M6194.056,3474.892v9.522a1.3,1.3,0,0,0,2.6,0v-9.522h2.8a1.3,1.3,0,1,0,0-2.6h-8.209a1.3,1.3,0,1,0,0,2.6Z" transform="translate(-5621.152 -2767.977)" fill="#be1d25"/>
    <path id="Контур_31" data-name="Контур 31" d="M6161.251,3480.649v-7.058a1.3,1.3,0,0,0-2.6,0v7.1a2.568,2.568,0,0,1-5.135-.044h0v-7.058a1.3,1.3,0,0,0-2.6,0v7.06a5.172,5.172,0,0,0,10.344,0Z" transform="translate(-5670.854 -2767.977)" fill="#be1d25"/>
    <path id="Контур_32" data-name="Контур 32" d="M6151.569,3483.113h-3.742c-.035,0-.041-.007-.041-.042v-2.953h0c0-.034.006-.039.041-.039h3.742a1.531,1.531,0,0,1,1.422,1.53,1.5,1.5,0,0,1-1.422,1.5m-3.742-8.222h3.082a1.259,1.259,0,0,1,1.347,1.279,1.282,1.282,0,0,1-1.347,1.307h-3.082c-.035,0-.041-.006-.041-.038v-2.508c0-.035.006-.041.041-.041m6.362,3.566a3.921,3.921,0,0,0,.67-2.257,3.8,3.8,0,0,0-3.981-3.91h-4.4a1.279,1.279,0,0,0-.631.17,1.181,1.181,0,0,0-.383.33.462.462,0,0,0-.062.08l0,0a1.309,1.309,0,0,0-.218.716v10.822a1.31,1.31,0,0,0,.218.716l0,0a.425.425,0,0,0,.062.079,1.182,1.182,0,0,0,.383.33,1.284,1.284,0,0,0,.631.17h5.054a4.147,4.147,0,0,0,2.653-7.256" transform="translate(-5678.139 -2767.977)" fill="#be1d25"/>
    <path id="Контур_33" data-name="Контур 33" d="M6185.432,3472.244a6.818,6.818,0,1,0,6.82,6.817,6.818,6.818,0,0,0-6.82-6.817m4.2,6.817a4.2,4.2,0,1,1-4.2-4.2,4.2,4.2,0,0,1,4.2,4.2" transform="translate(-5635.583 -2768.037)" fill="#be1d25"/>
    <path id="Контур_34" data-name="Контур 34" d="M6175.989,3482.108a1.343,1.343,0,0,0-1.848-.322,1.3,1.3,0,0,0-.278,1.818l.018.024a4.634,4.634,0,0,0,3.929,2.191,4.93,4.93,0,0,0,4.879-5.171h0v-7.058a1.3,1.3,0,0,0-2.6,0v7.1a2.315,2.315,0,0,1-2.274,2.525,2.152,2.152,0,0,1-1.821-1.11" transform="translate(-5641.955 -2767.977)" fill="#be1d25"/>
    <path id="Контур_35" data-name="Контур 35" d="M6177.606,3472.291a1.3,1.3,0,0,0-1.3,1.3v4.11h-5.895v-4.11a1.3,1.3,0,0,0-2.6,0v10.822a1.3,1.3,0,0,0,2.6,0v-4.11h5.895v4.11a1.3,1.3,0,0,0,2.6,0v-10.822a1.3,1.3,0,0,0-1.3-1.3" transform="translate(-5649.337 -2767.977)" fill="#be1d25"/>
    <path id="Контур_36" data-name="Контур 36" d="M6171.1,3482.186v0a4.2,4.2,0,1,1,0-6.242h0a1.306,1.306,0,0,0,1.842-.134,1.264,1.264,0,0,0-.092-1.807,6.821,6.821,0,0,0-11.388,5.063v0a6.821,6.821,0,0,0,11.388,5.062,1.264,1.264,0,0,0,.092-1.807,1.307,1.307,0,0,0-1.842-.134" transform="translate(-5657.415 -2768.038)" fill="#be1d25"/>
    <path id="Контур_37" data-name="Контур 37" d="M6161.291,3485.884a6.015,6.015,0,0,1-4.519-2.053,1.286,1.286,0,1,1,1.919-1.714,3.443,3.443,0,0,0,1.959,1.132,2.158,2.158,0,0,0,2.112-.532,1.312,1.312,0,0,0,.248-1.316,2.64,2.64,0,0,0-2.2-1.385,4.413,4.413,0,0,1-3.8-2.953,3.739,3.739,0,0,1,1.144-3.8,4.651,4.651,0,0,1,5-.546,6.428,6.428,0,0,1,1.541.9,1.287,1.287,0,0,1-1.533,2.068,3.856,3.856,0,0,0-1-.595,2.156,2.156,0,0,0-2.3.1,1.16,1.16,0,0,0-.379,1.167c.158.55.8.961,1.751,1.125a5.08,5.08,0,0,1,4.191,3.039,3.91,3.91,0,0,1-.706,3.865,4.387,4.387,0,0,1-3.432,1.5" transform="translate(-5663.804 -2768.031)" fill="#be1d25"/>
    <path id="Контур_38" data-name="Контур 38" d="M6190.19,3485.884a6.008,6.008,0,0,1-4.516-2.053,1.285,1.285,0,1,1,1.915-1.714,3.454,3.454,0,0,0,1.959,1.132,2.164,2.164,0,0,0,2.115-.532,1.314,1.314,0,0,0,.247-1.316,2.645,2.645,0,0,0-2.2-1.385,4.41,4.41,0,0,1-3.794-2.953,3.741,3.741,0,0,1,1.143-3.8,4.653,4.653,0,0,1,5.006-.546,6.391,6.391,0,0,1,1.537.9,1.286,1.286,0,1,1-1.529,2.068,3.989,3.989,0,0,0-1-.595,2.155,2.155,0,0,0-2.3.1,1.161,1.161,0,0,0-.38,1.167c.158.55.8.961,1.753,1.125a5.086,5.086,0,0,1,4.191,3.039,3.92,3.92,0,0,1-.708,3.865,4.388,4.388,0,0,1-3.432,1.5" transform="translate(-5627.018 -2768.031)" fill="#be1d25"/>
  </g>
</svg>
