<svg xmlns="http://www.w3.org/2000/svg" width="31.911" height="13.646" viewBox="0 0 31.911 13.646">
  <g id="Сгруппировать_70" data-name="Сгруппировать 70" transform="translate(-1080.74 -1561.787)">
    <path id="Контур_26" data-name="Контур 26" d="M6153.574,3599.271l1.595-3.757,1.595,3.757Zm7.453,3.377-4.6-10.825a1.39,1.39,0,0,0-2.513,0l-4.6,10.825a1.3,1.3,0,0,0,2.4,1.02l.76-1.793h5.4l.76,1.793a1.3,1.3,0,0,0,2.4-1.02" transform="translate(-5059.32 -2029.147)" fill="#be1d25"/>
    <path id="Контур_27" data-name="Контур 27" d="M6160.006,3604.633a5.788,5.788,0,0,1-1.123-.11,6.04,6.04,0,0,1-3.4-1.945,1.288,1.288,0,0,1,1.919-1.718,3.428,3.428,0,0,0,1.96,1.133,2.159,2.159,0,0,0,2.116-.53,1.319,1.319,0,0,0,.249-1.317,2.647,2.647,0,0,0-2.206-1.385,4.413,4.413,0,0,1-3.8-2.956,3.737,3.737,0,0,1,1.142-3.8,4.659,4.659,0,0,1,5.011-.546,6.407,6.407,0,0,1,1.539.9,1.286,1.286,0,0,1-1.531,2.068,4.022,4.022,0,0,0-1.005-.6,2.161,2.161,0,0,0-2.3.1,1.154,1.154,0,0,0-.377,1.164c.157.554.8.965,1.753,1.126a5.1,5.1,0,0,1,4.195,3.044,3.922,3.922,0,0,1-.707,3.868,4.4,4.4,0,0,1-3.435,1.5" transform="translate(-5051.728 -2029.199)" fill="#be1d25"/>
    <path id="Контур_28" data-name="Контур 28" d="M6152.727,3596.342h-4.937v-2.709h4.937a1.3,1.3,0,0,0,0-2.605h-6.239a1.3,1.3,0,0,0-1.3,1.3v10.832a1.3,1.3,0,0,0,2.606,0v-4.216h4.937a1.3,1.3,0,0,0,0-2.6" transform="translate(-5064.443 -2029.147)" fill="#be1d25"/>
  </g>
</svg>
