<svg xmlns="http://www.w3.org/2000/svg" width="131.709" height="13.823" viewBox="0 0 131.709 13.823">
  <g id="Сгруппировать_84" data-name="Сгруппировать 84" transform="translate(-139.258 -1190.022)">
    <path id="Контур_219" data-name="Контур 219" d="M83.937,522.361a1.34,1.34,0,0,0-2.679,0v11.145a1.34,1.34,0,0,0,2.679,0Z" transform="translate(58 669)" fill="#f36a10"/>
    <path id="Контур_220" data-name="Контур 220" d="M99.457,522.361a1.341,1.341,0,0,0-2.681,0v11.145a1.341,1.341,0,0,0,2.681,0Z" transform="translate(68.583 669)" fill="#f36a10"/>
    <path id="Контур_221" data-name="Контур 221" d="M93.411,534.844a2.117,2.117,0,0,0,1.916-1.214l4.114-8.664a.1.1,0,0,1,.094-.059.107.107,0,0,1,.108.108l0,8.448a1.34,1.34,0,1,0,2.679,0V523.378a2.363,2.363,0,0,0-4.563-.856l-4.252,8.968a.109.109,0,0,1-.1.064h0a.109.109,0,0,1-.1-.064l-4.252-8.968a2.363,2.363,0,0,0-4.563.856v10.085a1.384,1.384,0,0,0,1.384,1.381,1.311,1.311,0,0,0,1.3-1.381v-8.448a.107.107,0,0,1,.108-.108.1.1,0,0,1,.094.059l4.114,8.664a2.119,2.119,0,0,0,1.916,1.214Z" transform="translate(60.209 669)" fill="#f36a10"/>
    <path id="Контур_223" data-name="Контур 223" d="M122.471,522.361a1.341,1.341,0,0,0-2.681,0V533.5a1.341,1.341,0,0,0,2.681,0Z" transform="translate(84.277 669)" fill="#f36a10"/>
    <path id="Контур_224" data-name="Контур 224" d="M114.114,521.022a1.339,1.339,0,0,0-1.341,1.339v4.232h-6.068v-4.232a1.34,1.34,0,0,0-2.679,0V533.5a1.34,1.34,0,1,0,2.679,0v-4.232h6.068V533.5a1.34,1.34,0,1,0,2.679,0V522.361A1.338,1.338,0,0,0,114.114,521.022Z" transform="translate(73.527 669)" fill="#f36a10"/>
    <path id="Контур_225" data-name="Контур 225" d="M131.891,534.844a2.124,2.124,0,0,0,1.916-1.214l4.112-8.664a.1.1,0,0,1,.1-.059.107.107,0,0,1,.106.108l0,8.448a1.34,1.34,0,1,0,2.679,0V523.378a2.363,2.363,0,0,0-4.563-.856l-4.252,8.968a.1.1,0,0,1-.1.064h0a.109.109,0,0,1-.1-.064l-4.25-8.968a2.363,2.363,0,0,0-4.563.856v10.085a1.382,1.382,0,0,0,1.383,1.381,1.311,1.311,0,0,0,1.3-1.381v-8.448a.108.108,0,0,1,.108-.108.1.1,0,0,1,.094.059l4.114,8.664a2.124,2.124,0,0,0,1.916,1.214Z" transform="translate(86.451 669)" fill="#f36a10"/>
    <path id="Контур_226" data-name="Контур 226" d="M155.789,529.186c0-.035.005-.042.04-.042h2.982c.054,0,.072.013.1.066l2.239,4.856a1.34,1.34,0,1,0,2.434-1.122l-1.85-4.012.02-.013a3.822,3.822,0,0,0,2.215-3.746,4.078,4.078,0,0,0-4.176-4.151H154.43a1.328,1.328,0,0,0-1.322,1.393V533.5a1.341,1.341,0,0,0,2.681,0Zm.005-2.513h0s0-.01,0-.039v-2.893c0-.035.005-.04.04-.04h3.986a1.461,1.461,0,0,1,1.465,1.441,1.54,1.54,0,0,1-1.465,1.534h-3.986A.129.129,0,0,1,155.794,526.673Z" transform="translate(106.999 669)" fill="#f36a10"/>
    <path id="Контур_227" data-name="Контур 227" d="M120.8,529.168a1.341,1.341,0,0,0,0-2.681h-5.709V523.7H120.8a1.34,1.34,0,0,0,0-2.679h-7.049a1.34,1.34,0,0,0-1.341,1.339V533.5h0a1.341,1.341,0,0,0,1.341,1.341H120.8a1.34,1.34,0,0,0,0-2.679h-5.709v-3Z" transform="translate(79.246 669)" fill="#f36a10"/>
    <path id="Контур_228" data-name="Контур 228" d="M145.224,522.361a1.34,1.34,0,0,0-2.679,0V533.5a1.34,1.34,0,1,0,2.679,0Z" transform="translate(99.795 669)" fill="#f36a10"/>
    <path id="Контур_229" data-name="Контур 229" d="M143.556,529.168a1.341,1.341,0,1,0,0-2.681h-5.709V523.7h5.709a1.34,1.34,0,1,0,0-2.679h-7.047a1.339,1.339,0,0,0-1.235.817,1.313,1.313,0,0,0-.106.521V533.5h0a1.341,1.341,0,0,0,1.341,1.341h7.047a1.34,1.34,0,1,0,0-2.679h-5.709v-3Z" transform="translate(94.764 669)" fill="#f36a10"/>
    <path id="Контур_230" data-name="Контур 230" d="M154.121,529.168a1.341,1.341,0,0,0,0-2.681h-5.709V523.7h5.709a1.34,1.34,0,0,0,0-2.679h-7.049a1.34,1.34,0,0,0-1.341,1.339V533.5h0a1.341,1.341,0,0,0,1.341,1.341h7.049a1.34,1.34,0,0,0,0-2.679h-5.709v-3Z" transform="translate(101.968 669)" fill="#f36a10"/>
  </g>
</svg>
