<svg xmlns="http://www.w3.org/2000/svg" width="30" height="30" viewBox="0 0 30 30">
  <g id="Сгруппировать_83" data-name="Сгруппировать 83" transform="translate(-115.136 -1184.893)">
    <g id="Сгруппировать_31" data-name="Сгруппировать 31" transform="translate(115.136 1184.893)">
      <path id="Контур_218" data-name="Контур 218" d="M87.136,530.894a15,15,0,1,1-15-15,15,15,0,0,1,15,15" transform="translate(-57.136 -515.893)" fill="#f36a10"/>
    </g>
    <path id="Контур_222" data-name="Контур 222" d="M69.1,537.849a1.021,1.021,0,0,1-.818-.409l-6.065-8.107a1.022,1.022,0,0,1,0-1.223L68.283,520a1.02,1.02,0,0,1,1.635,0l6.065,8.106a1.022,1.022,0,0,1,0,1.223l-6.065,8.107A1.021,1.021,0,0,1,69.1,537.849Zm-4.789-9.128,4.789,6.4,4.789-6.4-4.789-6.4Z" transform="translate(61.037 671.303)" fill="#ececec"/>
  </g>
</svg>
