<svg xmlns="http://www.w3.org/2000/svg" width="70.464" height="13.646" viewBox="0 0 70.464 13.646">
  <g id="Сгруппировать_68" data-name="Сгруппировать 68" transform="translate(-3016.785 -2116.061)">
    <path id="Контур_40" data-name="Контур 40" d="M6171.127,3494.969a6.823,6.823,0,1,0,6.821,6.821,6.823,6.823,0,0,0-6.821-6.821m4.2,6.821a4.205,4.205,0,1,1-4.2-4.205,4.2,4.2,0,0,1,4.2,4.205" transform="translate(-3104.041 -1378.908)" fill="#be1d25"/>
    <path id="Контур_41" data-name="Контур 41" d="M6164.9,3496.319a1.3,1.3,0,0,0-2.6,0v10.827a1.3,1.3,0,0,0,2.6,0Z" transform="translate(-3106.593 -1378.85)" fill="#be1d25"/>
    <path id="Контур_42" data-name="Контур 42" d="M6154.987,3495.018a1.3,1.3,0,0,0-1.3,1.3v4.111h-5.9v-4.111a1.3,1.3,0,0,0-2.605,0v10.827a1.3,1.3,0,0,0,2.605,0v-4.112h5.9v4.112a1.3,1.3,0,1,0,2.6,0v-10.827a1.3,1.3,0,0,0-1.3-1.3" transform="translate(-3128.399 -1378.85)" fill="#be1d25"/>
    <path id="Контур_43" data-name="Контур 43" d="M6179.588,3507.842a1.6,1.6,0,0,0,1.283.608,1.678,1.678,0,0,0,1.677-1.665v-10.626a1.28,1.28,0,0,0-1.3-1.141,1.3,1.3,0,0,0-1.3,1.3v7.218h0l0,0a.1.1,0,0,1-.1.1.094.094,0,0,1-.078-.048v0l-5.552-7.857h0a1.675,1.675,0,0,0-3.051.941v10.467a1.3,1.3,0,1,0,2.6,0v-7.23a.1.1,0,0,1,.1-.1.1.1,0,0,1,.078.043Z" transform="translate(-3095.301 -1378.85)" fill="#be1d25"/>
    <path id="Контур_44" data-name="Контур 44" d="M6159.122,3500.51h0a.134.134,0,0,1,0-.038v-2.809c0-.036.006-.041.041-.041h3.872a1.42,1.42,0,0,1,1.424,1.4,1.5,1.5,0,0,1-1.424,1.49h-3.872l-.035,0m-.006,2.441c0-.034.006-.041.041-.041h2.9c.052,0,.067.014.094.063l2.178,4.72a1.3,1.3,0,0,0,2.364-1.09l-1.8-3.9.02-.013a3.717,3.717,0,0,0,2.152-3.639,3.963,3.963,0,0,0-4.059-4.035H6157.8a1.29,1.29,0,0,0-1.284,1.353v10.776a1.3,1.3,0,1,0,2.6,0Z" transform="translate(-3113.962 -1378.85)" fill="#be1d25"/>
    <path id="Контур_45" data-name="Контур 45" d="M6159.364,3502.932a1.3,1.3,0,1,0,0-2.6h-5.547v-2.707h5.547a1.3,1.3,0,1,0,0-2.6h-6.849a1.3,1.3,0,0,0-1.2.8,1.356,1.356,0,0,0-.1.506v10.827a1.3,1.3,0,0,0,1.3,1.3h6.849a1.3,1.3,0,1,0,0-2.6h-5.547v-2.914Z" transform="translate(-3120.721 -1378.85)" fill="#be1d25"/>
  </g>
</svg>
