<svg xmlns="http://www.w3.org/2000/svg" width="35.168" height="13.646" viewBox="0 0 35.168 13.646">
  <g id="Сгруппировать_82" data-name="Сгруппировать 82" transform="translate(-135.148 -984.099)">
    <path id="Контур_213" data-name="Контур 213" d="M79.792,316.423a1.322,1.322,0,1,0-2.644,0v11a1.322,1.322,0,1,0,2.644,0Z" transform="translate(58 669.001)" fill="#bf0031"/>
    <path id="Контур_216" data-name="Контур 216" d="M88.577,328.741a2.1,2.1,0,0,0,1.891-1.2l4.058-8.548a.1.1,0,0,1,.093-.059.106.106,0,0,1,.106.106v8.336a1.324,1.324,0,1,0,2.646,0v-9.951a2.333,2.333,0,0,0-4.5-.845l-4.195,8.851a.111.111,0,0,1-.1.063h0a.114.114,0,0,1-.1-.063l-4.195-8.851a2.331,2.331,0,0,0-4.5.845v9.951a1.364,1.364,0,0,0,1.364,1.364,1.3,1.3,0,0,0,1.28-1.364v-8.336a.106.106,0,0,1,.106-.106.1.1,0,0,1,.093.059l4.061,8.548a2.093,2.093,0,0,0,1.891,1.2Z" transform="translate(61.068 669)" fill="#bf0031"/>
    <path id="Контур_217" data-name="Контур 217" d="M96.9,320.495H91.885v-2.75H96.9a1.322,1.322,0,1,0,0-2.644H90.562a1.322,1.322,0,0,0-1.321,1.323v11a1.322,1.322,0,0,0,2.644,0v-4.281H96.9a1.322,1.322,0,1,0,0-2.644" transform="translate(72.097 669.001)" fill="#bf0031"/>
  </g>
</svg>
