<svg xmlns="http://www.w3.org/2000/svg" width="28.638" height="13.646" viewBox="0 0 28.638 13.646">
  <g id="Сгруппировать_77" data-name="Сгруппировать 77" transform="translate(-136.028 -1056.361)">
    <path id="Контур_126" data-name="Контур 126" d="M86.263,388.684a1.322,1.322,0,1,0-2.645,0v11a1.322,1.322,0,1,0,2.645,0Z" transform="translate(64.518 669)" fill="#bf0031"/>
    <path id="Контур_178" data-name="Контур 178" d="M80.675,388.684a1.323,1.323,0,0,0-2.647,0v11a1.323,1.323,0,1,0,2.647,0Z" transform="translate(58 669)" fill="#bf0031"/>
    <path id="Контур_179" data-name="Контур 179" d="M78.932,394.191l4.72,6.284a1.321,1.321,0,0,0,2.11-1.59l-3.544-4.7,3.544-4.7a1.32,1.32,0,1,0-2.11-1.588l-4.321,5.664" transform="translate(59.054 669)" fill="#bf0031"/>
    <path id="Контур_200" data-name="Контур 200" d="M88.951,392.938h0s0-.009,0-.037v-2.855c0-.035,0-.041.041-.041h3.933a1.441,1.441,0,0,1,1.445,1.423,1.519,1.519,0,0,1-1.445,1.514H88.988a.111.111,0,0,1-.037,0m5.09,2.435a2.508,2.508,0,0,0,.793-.219,3.611,3.611,0,0,0,2.185-3.7,4.025,4.025,0,0,0-4.122-4.1H87.6a1.31,1.31,0,0,0-1.3,1.375v10.945a1.322,1.322,0,1,0,2.645,0v-4.263c0-.035,0-.041.039-.041h2.944" transform="translate(67.647 669)" fill="#bf0031"/>
  </g>
</svg>
