<svg xmlns="http://www.w3.org/2000/svg" width="72.452" height="13.823" viewBox="0 0 72.452 13.823">
  <g id="Сгруппировать_74" data-name="Сгруппировать 74" transform="translate(-136.141 -1089.793)">
    <path id="Контур_169" data-name="Контур 169" d="M90.709,431.806H85.873a.139.139,0,0,1-.147-.147v-9.5a1.319,1.319,0,0,0-2.637,0v10.991a1.357,1.357,0,0,0,1.438,1.3h6.182a1.319,1.319,0,1,0,0-2.637" transform="translate(63.739 669.052)" fill="#bf0031"/>
    <path id="Контур_170" data-name="Контур 170" d="M103.131,428.855a1.319,1.319,0,1,0,0-2.637H97.513v-2.743h5.618a1.319,1.319,0,1,0,0-2.637H96.194a1.321,1.321,0,0,0-1.216.806,1.346,1.346,0,0,0-.1.512v10.97a1.319,1.319,0,0,0,1.32,1.317h6.937a1.319,1.319,0,1,0,0-2.637H97.513v-2.95Z" transform="translate(77.408 669.052)" fill="#bf0031"/>
    <path id="Контур_171" data-name="Контур 171" d="M110.156,420.837a1.319,1.319,0,0,0-1.32,1.32v4.164h-5.972v-4.164a1.319,1.319,0,1,0-2.637,0v10.968a1.319,1.319,0,0,0,2.637,0v-4.166h5.972v4.166a1.32,1.32,0,0,0,2.639,0V422.157a1.319,1.319,0,0,0-1.32-1.32" transform="translate(83.617 669.051)" fill="#bf0031"/>
    <path id="Контур_172" data-name="Контур 172" d="M114.883,433.828a1.619,1.619,0,0,0,1.3.616,1.7,1.7,0,0,0,1.7-1.685V421.995a1.3,1.3,0,0,0-1.318-1.158,1.321,1.321,0,0,0-1.32,1.32v7.311h0l0,.006a.1.1,0,0,1-.1.1.092.092,0,0,1-.078-.05l0,0-5.624-7.961,0,0a1.7,1.7,0,0,0-3.091.953l0,10.6a1.319,1.319,0,1,0,2.637,0V425.8a.1.1,0,0,1,.1-.1.093.093,0,0,1,.078.045Z" transform="translate(90.713 669.051)" fill="#bf0031"/>
    <path id="Контур_174" data-name="Контур 174" d="M80.778,422.157a1.319,1.319,0,1,0-2.637,0v10.968a1.319,1.319,0,1,0,2.637,0Z" transform="translate(58 669.051)" fill="#bf0031"/>
    <path id="Контур_175" data-name="Контур 175" d="M79.045,427.648l4.706,6.266a1.317,1.317,0,0,0,2.1-1.585l-3.534-4.691,3.534-4.691a1.316,1.316,0,1,0-2.1-1.583l-4.309,5.648" transform="translate(59.049 669.052)" fill="#bf0031"/>
    <path id="Контур_180" data-name="Контур 180" d="M94.655,420.793a6.912,6.912,0,1,0,6.909,6.912,6.912,6.912,0,0,0-6.909-6.912m4.259,6.912a4.26,4.26,0,1,1-4.259-4.259,4.26,4.26,0,0,1,4.259,4.259" transform="translate(69.137 669)" fill="#bf0031"/>
  </g>
</svg>
