<svg xmlns="http://www.w3.org/2000/svg" width="30" height="30" viewBox="0 0 30 30">
  <g id="Сгруппировать_75" data-name="Сгруппировать 75" transform="translate(-117.641 -1085.9)">
    <path id="Контур_181" data-name="Контур 181" d="M69.381,420.035a1.721,1.721,0,1,1-1.721-1.721,1.721,1.721,0,0,1,1.721,1.721" transform="translate(65.033 670.579)" fill="#bf0031"/>
    <path id="Контур_182" data-name="Контур 182" d="M65.98,428.326a1.74,1.74,0,1,1-1.74-1.74,1.74,1.74,0,0,1,1.74,1.74" transform="translate(61.193 679.816)" fill="#bf0031"/>
    <path id="Контур_183" data-name="Контур 183" d="M72.84,428.326a1.74,1.74,0,1,1-1.74-1.74,1.74,1.74,0,0,1,1.74,1.74" transform="translate(68.853 679.816)" fill="#bf0031"/>
    <path id="Контур_184" data-name="Контур 184" d="M70.388,425.217a2.377,2.377,0,1,1-2.377-2.377,2.378,2.378,0,0,1,2.377,2.377" transform="translate(64.692 675.633)" fill="#bf0031"/>
    <path id="Контур_185" data-name="Контур 185" d="M81.953,442.33a3.189,3.189,0,1,1,3.19-3.188,3.187,3.187,0,0,1-3.19,3.188m-4.32-6.469a.728.728,0,0,1,1.029-1.031l.715.718a.727.727,0,0,1-1.029,1.029l-.715-.715m-6.782-4.011A3.851,3.851,0,1,1,74.7,435.7a3.853,3.853,0,0,1-3.852-3.852m.9,4.011-.715.715A.727.727,0,0,1,70,435.548l.715-.718a.728.728,0,1,1,1.029,1.031m-4.314,6.469a3.189,3.189,0,1,1,3.188-3.188,3.189,3.189,0,0,1-3.188,3.188m6.522-16.343a.727.727,0,1,1,1.454,0V427a.727.727,0,0,1-1.454,0Zm.739-7.563a3.19,3.19,0,1,1-3.19,3.19,3.191,3.191,0,0,1,3.19-3.19m-.051-1.524a15,15,0,1,0,15,15,15,15,0,0,0-15-15" transform="translate(58 669)" fill="#bf0031"/>
  </g>
</svg>
