<svg xmlns="http://www.w3.org/2000/svg" width="52.983" height="13.412" viewBox="0 0 52.983 13.412">
  <g id="Сгруппировать_73" data-name="Сгруппировать 73" transform="translate(-138.985 -1286.163)">
    <path id="Контур_116" data-name="Контур 116" d="M99.421,625.391l1.592-3.749,1.59,3.749Zm7.438,3.372-4.592-10.806a1.39,1.39,0,0,0-2.51,0l-4.592,10.806a1.3,1.3,0,1,0,2.393,1.016l.76-1.788h5.388l.76,1.788a1.3,1.3,0,1,0,2.393-1.016" transform="translate(73.891 669.002)" fill="#233d91"/>
    <path id="Контур_127" data-name="Контур 127" d="M88.865,618.464a1.3,1.3,0,1,0-2.6,0v10.811a1.3,1.3,0,1,0,2.6,0Z" transform="translate(63.962 669)" fill="#233d91"/>
    <path id="Контур_160" data-name="Контур 160" d="M88.5,627.975H83.729a.138.138,0,0,1-.145-.145v-9.367a1.3,1.3,0,0,0-2.6,0V629.3a1.337,1.337,0,0,0,1.418,1.277H88.5a1.3,1.3,0,1,0,0-2.6" transform="translate(58 669.001)" fill="#233d91"/>
    <path id="Контур_173" data-name="Контур 173" d="M97.195,629.969a1.6,1.6,0,0,0,1.279.607,1.675,1.675,0,0,0,1.675-1.661V618.3a1.279,1.279,0,0,0-1.3-1.141,1.3,1.3,0,0,0-1.3,1.3v7.206h0l0,.006a.1.1,0,0,1-.1.1.091.091,0,0,1-.077-.049l0,0-5.544-7.847,0,0a1.671,1.671,0,0,0-3.047.939l0,10.451a1.3,1.3,0,1,0,2.6,0v-7.219a.1.1,0,0,1,.1-.1.092.092,0,0,1,.077.045Z" transform="translate(66.799 669)" fill="#233d91"/>
    <path id="Контур_176" data-name="Контур 176" d="M104.292,618.464a1.3,1.3,0,1,0-2.6,0v10.811a1.3,1.3,0,1,0,2.6,0Z" transform="translate(81.378 669)" fill="#233d91"/>
    <path id="Контур_177" data-name="Контур 177" d="M102.6,623.877l4.639,6.176a1.3,1.3,0,0,0,2.074-1.563l-3.483-4.624,3.483-4.624a1.3,1.3,0,1,0-2.074-1.561l-4.247,5.567" transform="translate(82.397 669.001)" fill="#233d91"/>
  </g>
</svg>
