<svg xmlns="http://www.w3.org/2000/svg" width="30" height="30.002" viewBox="0 0 30 30.002">
  <g id="Сгруппировать_89" data-name="Сгруппировать 89" transform="translate(-118.347 -1281.8)">
    <g id="Сгруппировать_35" data-name="Сгруппировать 35" transform="translate(118.347 1281.8)">
      <path id="Контур_254" data-name="Контур 254" d="M75.349,612.8a15,15,0,1,0,15,15,15,15,0,0,0-15-15" transform="translate(-60.347 -612.8)" fill="#233d91"/>
      <path id="Контур_255" data-name="Контур 255" d="M70.111,614.74l4.6,4.862c-.15.016-2.819.014-2.819.014l.014.052-.014,10.264-2.627,0-.918-.006-.029-10.291-2.763-.027-.025,0Z" transform="translate(-54.868 -610.749)" fill="#ececec"/>
      <path id="Контур_256" data-name="Контур 256" d="M81.935,626.327a6.425,6.425,0,0,1-2.487,2.73,11.831,11.831,0,0,1-8.091,1.856c-.251-.018-.527-.07-.767-.107H70.6v-.014a15.073,15.073,0,0,1-2.282-.59,9.311,9.311,0,0,1-4.6-3.5,5.6,5.6,0,0,1-.728-2.222,5.238,5.238,0,0,1,1.463-3.831c.27-.311.555-.537.831-.8v-.035c-.481-.356-1-.689-1.469-1.045l.058-.027,5.084.021.016-.008.033.025-.008,3.59-.008.008-1.171-.792a4.639,4.639,0,0,0-1.08,1.611,2.946,2.946,0,0,0,.282,2.666,5.286,5.286,0,0,0,2.415,1.963,8.393,8.393,0,0,0,3.267.656,7.369,7.369,0,0,0,4.911-1.854,3.269,3.269,0,0,0,1.111-2.368c.043-1.584-1.166-2.773-2.413-3.541V620.7l2.549-1.685a.127.127,0,0,0,.058-.041,8.99,8.99,0,0,1,1.835,1.454,5.284,5.284,0,0,1,1.411,2.36A5.632,5.632,0,0,1,81.935,626.327Z" transform="translate(-57.564 -606.519)" fill="#ececec"/>
    </g>
  </g>
</svg>
