<svg xmlns="http://www.w3.org/2000/svg" width="90.187" height="13.646" viewBox="0 0 90.187 13.646">
  <g id="Сгруппировать_69" data-name="Сгруппировать 69" transform="translate(-3016.785 -2249.94)">
    <path id="Контур_57" data-name="Контур 57" d="M6166.64,3524.677l3.491-4.635a1.3,1.3,0,0,0-2.078-1.563l-3.041,4.037-3.039-4.037a1.3,1.3,0,0,0-2.081,1.563l3.493,4.635-3.493,4.632a1.3,1.3,0,0,0,2.081,1.565l3.039-4.036,3.041,4.036a1.3,1.3,0,0,0,2.078-1.565Z" transform="translate(-3109.981 -1267.919)" fill="#be1d25"/>
    <path id="Контур_58" data-name="Контур 58" d="M6188.472,3528.789H6183.7a.139.139,0,0,1-.146-.146v-9.382a1.3,1.3,0,1,0-2.6,0v10.852a1.343,1.343,0,0,0,1.423,1.28h6.1a1.3,1.3,0,1,0,0-2.6" transform="translate(-3082.802 -1267.923)" fill="#be1d25"/>
    <path id="Контур_59" data-name="Контур 59" d="M6153.851,3531.393a2.062,2.062,0,0,0,1.86-1.18l4-8.42a.1.1,0,0,1,.09-.058.105.105,0,0,1,.106.1v8.211a1.3,1.3,0,1,0,2.6,0v-9.8a2.3,2.3,0,0,0-4.437-.833l-4.131,8.717a.105.105,0,0,1-.093.062h0a.1.1,0,0,1-.094-.062l-4.131-8.717a2.3,2.3,0,0,0-4.437.833v9.8a1.343,1.343,0,0,0,1.345,1.342,1.273,1.273,0,0,0,1.261-1.342v-8.211a.1.1,0,0,1,.1-.1.1.1,0,0,1,.093.058l4,8.42a2.067,2.067,0,0,0,1.863,1.18Z" transform="translate(-3128.399 -1267.923)" fill="#be1d25"/>
    <path id="Контур_60" data-name="Контур 60" d="M6158.027,3526.2l1.6-3.756,1.594,3.756Zm7.453,3.378-4.6-10.824a1.391,1.391,0,0,0-2.515,0l-4.6,10.824a1.3,1.3,0,0,0,2.4,1.02l.764-1.792h5.4l.761,1.792a1.3,1.3,0,0,0,2.4-1.02" transform="translate(-3117.595 -1267.923)" fill="#be1d25"/>
    <path id="Контур_61" data-name="Контур 61" d="M6179.217,3526.2l1.595-3.756,1.593,3.756Zm7.453,3.378-4.6-10.824a1.391,1.391,0,0,0-2.515,0l-4.6,10.824a1.3,1.3,0,0,0,2.4,1.02l.763-1.792h5.4l.76,1.792a1.3,1.3,0,0,0,2.4-1.02" transform="translate(-3090.582 -1267.923)" fill="#be1d25"/>
    <path id="Контур_62" data-name="Контур 62" d="M6170.054,3531.563a6.059,6.059,0,0,1-4.52-2.055,1.287,1.287,0,1,1,1.917-1.718,3.46,3.46,0,0,0,1.962,1.133,2.157,2.157,0,0,0,2.116-.53,1.321,1.321,0,0,0,.248-1.317,2.653,2.653,0,0,0-2.207-1.385,4.417,4.417,0,0,1-3.8-2.956,3.744,3.744,0,0,1,1.144-3.8,4.668,4.668,0,0,1,5.011-.546,6.485,6.485,0,0,1,1.537.9,1.287,1.287,0,1,1-1.531,2.07,4.009,4.009,0,0,0-1-.6,2.169,2.169,0,0,0-2.3.1,1.154,1.154,0,0,0-.378,1.165c.16.554.8.963,1.755,1.126a5.09,5.09,0,0,1,4.195,3.044,3.922,3.922,0,0,1-.707,3.868,4.4,4.4,0,0,1-3.437,1.5" transform="translate(-3102.873 -1267.977)" fill="#be1d25"/>
    <path id="Контур_63" data-name="Контур 63" d="M6178.272,3525.876a1.3,1.3,0,0,0,0-2.6h-5.549v-2.709h5.549a1.3,1.3,0,0,0,0-2.605h-6.851a1.3,1.3,0,0,0-1.3,1.3v10.832h0a1.3,1.3,0,0,0,1.3,1.3h6.851a1.3,1.3,0,0,0,0-2.6h-5.549v-2.913Z" transform="translate(-3096.611 -1267.923)" fill="#be1d25"/>
  </g>
</svg>
