<svg xmlns="http://www.w3.org/2000/svg" width="30" height="30.001" viewBox="0 0 30 30.001">
  <path id="Контур_279" data-name="Контур 279" d="M6144.234,3535.89a1.038,1.038,0,0,1-.085.8,1.053,1.053,0,0,1-.627.5l-7.662,2.235a1.051,1.051,0,0,1-1.3-.711,1.048,1.048,0,0,1,.711-1.3l7.666-2.233a.977.977,0,0,1,.293-.043,1.049,1.049,0,0,1,1,.754m0-3.995a1.046,1.046,0,0,1-.712,1.3l-7.662,2.238a1.053,1.053,0,0,1-1.3-.712,1.035,1.035,0,0,1,.086-.8,1.021,1.021,0,0,1,.625-.5l7.666-2.236a1.1,1.1,0,0,1,.293-.043,1.05,1.05,0,0,1,1,.752m0-3.989a1.037,1.037,0,0,1-.085.8,1.06,1.06,0,0,1-.627.5l-7.662,2.235a1.05,1.05,0,0,1-1.3-.714,1.028,1.028,0,0,1,.086-.794,1.038,1.038,0,0,1,.628-.5l7.663-2.233a.986.986,0,0,1,.29-.042,1.05,1.05,0,0,1,1.005.754m0-3.994a1.049,1.049,0,0,1-.712,1.3l-7.662,2.235a1.048,1.048,0,0,1-1.211-1.508,1.021,1.021,0,0,1,.625-.5l7.666-2.237a1.049,1.049,0,0,1,1.3.711m0-3.992a1.043,1.043,0,0,1-.712,1.3l-7.662,2.235a1.027,1.027,0,0,1-.293.043,1.05,1.05,0,0,1-1-.757,1.043,1.043,0,0,1,.711-1.3l7.666-2.237a1.049,1.049,0,0,1,1.3.71m10.256,9.345a15,15,0,1,0-15,15,15,15,0,0,0,15-15" transform="translate(-6124.49 -3514.266)" fill="#be1d25"/>
</svg>
