<svg id="Сгруппировать_65" data-name="Сгруппировать 65" xmlns="http://www.w3.org/2000/svg" width="29.856" height="29.856" viewBox="0 0 29.856 29.856">
  <path id="Контур_3" data-name="Контур 3" d="M6142.536,3449.668c-.7.243-1.386.443-2.056.609l1.11,1.3.227.27h-2.371c-.2.7-1.287,4.55-1.812,6.682a3.01,3.01,0,0,1-2.889,2.218,19.376,19.376,0,0,1-1.882,3.269,20.993,20.993,0,0,1,4.455,4.233,14.924,14.924,0,0,0,5.218-18.581" transform="translate(-6114.034 -3440.948)" fill="#be1d25"/>
  <path id="Контур_4" data-name="Контур 4" d="M6136.4,3456.336a22.525,22.525,0,0,1-6.743,5.765,14.9,14.9,0,0,0,10.967-1.729,20.625,20.625,0,0,0-4.224-4.036" transform="translate(-6118.049 -3432.621)" fill="#be1d25"/>
  <path id="Контур_5" data-name="Контур 5" d="M6131.215,3455.031c-.577.041-1.124.108-1.636.189l-.646,2.413-.078.3-.2-.227a11.1,11.1,0,0,1-1.394-1.957,14.352,14.352,0,0,0-1.924.708,14.97,14.97,0,0,0,8.65,7,29.1,29.1,0,0,1-2.77-8.42" transform="translate(-6123.439 -3434.251)" fill="#be1d25"/>
  <path id="Контур_6" data-name="Контур 6" d="M6127.927,3465.24a12.342,12.342,0,0,1-.939-2.59l-.009-.041.014-.036,1.429-5.457a2.644,2.644,0,0,1,2.63-2.046h2.324a18.964,18.964,0,0,1,2.132-3.863,16.882,16.882,0,0,1-4.173-4.36,14.931,14.931,0,0,0-5.337,19.087,15.021,15.021,0,0,1,1.93-.695" transform="translate(-6124.49 -3444.466)" fill="#be1d25"/>
  <path id="Контур_7" data-name="Контур 7" d="M6131.767,3451.916a22.552,22.552,0,0,1,6.7-5.77,15.1,15.1,0,0,0-3.247-.357,14.835,14.835,0,0,0-7.367,1.948,15.184,15.184,0,0,0,3.913,4.178" transform="translate(-6120.297 -3445.789)" fill="#be1d25"/>
  <path id="Контур_8" data-name="Контур 8" d="M6136.608,3454.979c-.71,0-1.846,0-3.013-.041a4.646,4.646,0,0,1-2.552-.646l-.413,1.534a16.947,16.947,0,0,1,4.319,1.943,18.355,18.355,0,0,0,1.658-2.791" transform="translate(-6116.828 -3435.17)" fill="#be1d25"/>
  <path id="Контур_9" data-name="Контур 9" d="M6135.64,3457.152a15.973,15.973,0,0,0-4.041-1.839l-1.911,7.053a22.427,22.427,0,0,0,5.952-5.214" transform="translate(-6118 -3433.9)" fill="#be1d25"/>
  <path id="Контур_10" data-name="Контур 10" d="M6132.508,3455.467a16.509,16.509,0,0,0-4.186-.449,27.558,27.558,0,0,0,2.323,7.334Z" transform="translate(-6119.711 -3434.272)" fill="#be1d25"/>
  <path id="Контур_11" data-name="Контур 11" d="M6128.84,3452.381h.651c2.354,0,2.984.455,4.587,2.383l1.007-3.712a16.776,16.776,0,0,1-4.311-2.049,18.111,18.111,0,0,0-1.935,3.377" transform="translate(-6119.064 -3441.777)" fill="#be1d25"/>
  <path id="Контур_12" data-name="Контур 12" d="M6129.907,3451.667a15.431,15.431,0,0,0,4.049,1.909l1.95-7.2a22.443,22.443,0,0,0-6,5.289" transform="translate(-6117.734 -3445.055)" fill="#be1d25"/>
  <path id="Контур_13" data-name="Контур 13" d="M6132.066,3453.577a16.228,16.228,0,0,0,3.589.463l.586-.377a27.821,27.821,0,0,0-2.278-7.107Z" transform="translate(-6115.04 -3444.837)" fill="#be1d25"/>
  <path id="Контур_14" data-name="Контур 14" d="M6135.272,3450.455a17.47,17.47,0,0,1-2.658-.441l-1.158,4.271,3.469,4.177,1.827-7.049h-2.961l.47-.3Z" transform="translate(-6115.791 -3440.514)" fill="#be1d25"/>
  <path id="Контур_15" data-name="Контур 15" d="M6132.847,3458.987l.509-1.873a12.767,12.767,0,0,1-1.093-1.2c-1.02-1.249-2.577-3.191-3.482-4.324a18.423,18.423,0,0,0-.425,6.935,17.743,17.743,0,0,1,4.491.46" transform="translate(-6119.848 -3438.544)" fill="#be1d25"/>
  <path id="Контур_16" data-name="Контур 16" d="M6127.318,3457.509c.415-.058.856-.105,1.312-.136a19.787,19.787,0,0,1,.007-4.826Z" transform="translate(-6120.962 -3437.354)" fill="#be1d25"/>
  <path id="Контур_17" data-name="Контур 17" d="M6135.713,3453.751l2.219-1.439.12-.078.1.107,1.445,1.707c.742-.175,1.5-.4,2.287-.664a14.957,14.957,0,0,0-8.789-7.3,29.761,29.761,0,0,1,2.619,7.665" transform="translate(-6113.75 -3445.42)" fill="#be1d25"/>
</svg>
