<svg id="Сгруппировать_66" data-name="Сгруппировать 66" xmlns="http://www.w3.org/2000/svg" width="94.213" height="13.646" viewBox="0 0 94.213 13.646">
  <path id="Контур_18" data-name="Контур 18" d="M6157.857,3449.422a6.822,6.822,0,1,0,6.821,6.823,6.822,6.822,0,0,0-6.821-6.823m4.205,6.823a4.2,4.2,0,1,1-4.205-4.207,4.2,4.2,0,0,1,4.205,4.207" transform="translate(-6137.695 -3449.422)" fill="#be1d25"/>
  <path id="Контур_19" data-name="Контур 19" d="M6153.6,3462.292a1.591,1.591,0,0,0,1.281.607,1.674,1.674,0,0,0,1.675-1.663l0-10.625a1.28,1.28,0,0,0-1.3-1.142,1.3,1.3,0,0,0-1.3,1.3v7.216h-.006l.006.006a.1.1,0,0,1-.1.1.089.089,0,0,1-.074-.048l0,0-5.548-7.857h0a1.676,1.676,0,0,0-3.054.941V3461.6a1.3,1.3,0,1,0,2.6,0v-7.231a.1.1,0,0,1,.1-.1.09.09,0,0,1,.076.045Z" transform="translate(-6145.17 -3449.362)" fill="#be1d25"/>
  <path id="Контур_20" data-name="Контур 20" d="M6190.007,3462.292a1.6,1.6,0,0,0,1.28.607,1.676,1.676,0,0,0,1.678-1.663v-10.625a1.279,1.279,0,0,0-1.3-1.142,1.3,1.3,0,0,0-1.3,1.3v7.216h0l0,.006a.1.1,0,0,1-.1.1.093.093,0,0,1-.078-.048l0,0-5.55-7.857h0a1.673,1.673,0,0,0-3.05.941l0,10.466a1.3,1.3,0,0,0,2.6,0v-7.231a.1.1,0,0,1,.1-.1.089.089,0,0,1,.077.045Z" transform="translate(-6098.752 -3449.362)" fill="#be1d25"/>
  <path id="Контур_21" data-name="Контур 21" d="M6176.945,3457.3l0,0a1.56,1.56,0,0,0,.021-.191,1.3,1.3,0,0,0-1.3-1.3h-4.477a1.3,1.3,0,0,0,0,2.6h2.624a4.2,4.2,0,1,1-.78-5.289h0a1.308,1.308,0,0,0,1.844-.134,1.261,1.261,0,0,0-.092-1.807,6.825,6.825,0,0,0-9.872,9.365h0a6.822,6.822,0,0,0,12.021-3.146l.01-.059.011-.041" transform="translate(-6121.947 -3449.421)" fill="#be1d25"/>
  <path id="Контур_22" data-name="Контур 22" d="M6160.5,3454.961h0a.094.094,0,0,1,0-.037v-2.809c0-.037.008-.041.045-.041h3.869a1.42,1.42,0,0,1,1.424,1.4,1.5,1.5,0,0,1-1.424,1.489h-3.869l-.037,0m-.008,2.441c0-.034.008-.039.042-.039h2.9c.052,0,.069.011.1.062l2.177,4.718a1.3,1.3,0,1,0,2.361-1.09l-1.795-3.9.018-.014a3.713,3.713,0,0,0,2.151-3.638,3.961,3.961,0,0,0-4.055-4.035h-5.212a1.29,1.29,0,0,0-1.282,1.354V3461.6a1.3,1.3,0,1,0,2.6,0Z" transform="translate(-6128.954 -3449.362)" fill="#be1d25"/>
  <path id="Контур_23" data-name="Контур 23" d="M6173.1,3454.961h0a.094.094,0,0,1,0-.037v-2.809c0-.037.008-.041.044-.041h3.87a1.419,1.419,0,0,1,1.423,1.4,1.5,1.5,0,0,1-1.423,1.489h-3.87l-.036,0m-.008,2.441c0-.034.008-.039.041-.039h2.9c.052,0,.069.011.1.062l2.177,4.718a1.3,1.3,0,1,0,2.363-1.09l-1.8-3.9.021-.014a3.713,3.713,0,0,0,2.149-3.638,3.963,3.963,0,0,0-4.059-4.035h-5.209a1.292,1.292,0,0,0-1.283,1.354V3461.6a1.3,1.3,0,1,0,2.6,0Z" transform="translate(-6112.878 -3449.362)" fill="#be1d25"/>
  <path id="Контур_24" data-name="Контур 24" d="M6184.426,3457.384a1.3,1.3,0,1,0,0-2.6h-5.546v-2.707h5.546a1.3,1.3,0,0,0,0-2.6h-6.847a1.3,1.3,0,0,0-1.2.8,1.26,1.26,0,0,0-.1.5V3461.6a1.3,1.3,0,0,0,1.3,1.3h6.847a1.3,1.3,0,1,0,0-2.6h-5.546v-2.914Z" transform="translate(-6105.506 -3449.362)" fill="#be1d25"/>
</svg>
