<svg xmlns="http://www.w3.org/2000/svg" width="30" height="30.002" viewBox="0 0 30 30.002">
  <g id="Сгруппировать_85" data-name="Сгруппировать 85" transform="translate(-116.058 -1119.451)">
    <g id="Сгруппировать_32" data-name="Сгруппировать 32" transform="translate(116.058 1119.451)">
      <path id="Контур_231" data-name="Контур 231" d="M88.058,465.451a15,15,0,1,1-15-15,15,15,0,0,1,15,15" transform="translate(-58.058 -450.451)" fill="#f36a10"/>
    </g>
    <path id="Контур_235" data-name="Контур 235" d="M77.478,459.213h-4v-4a.894.894,0,0,0-.894-.894h-9.78a.893.893,0,0,0-.894.894V465a.892.892,0,0,0,.894.894h4v4a.894.894,0,0,0,.894.894h9.781a.893.893,0,0,0,.892-.894v-9.781A.893.893,0,0,0,77.478,459.213ZM63.7,464.1V456.11h7.994v3.1h-4a.894.894,0,0,0-.894.894v4Zm7.994-3.1v3.1h-3.1V461Zm4.892,7.994H68.59v-3.1h4A.893.893,0,0,0,73.48,465v-4h3.1Z" transform="translate(60.887 671.9)" fill="#ececec"/>
  </g>
</svg>
