<svg xmlns="http://www.w3.org/2000/svg" width="158.222" height="13.823" viewBox="0 0 158.222 13.823">
  <g id="Сгруппировать_86" data-name="Сгруппировать 86" transform="translate(-138.436 -1124.209)">
    <path id="Контур_232" data-name="Контур 232" d="M83.095,456.538a1.329,1.329,0,0,0-2.659,0v11.056a1.329,1.329,0,1,0,2.659,0Z" transform="translate(58 669)" fill="#f36a10"/>
    <path id="Контур_233" data-name="Контур 233" d="M97.491,456.538a1.329,1.329,0,0,0-2.659,0v11.056a1.329,1.329,0,1,0,2.659,0Z" transform="translate(69.501 669)" fill="#f36a10"/>
    <path id="Контур_234" data-name="Контур 234" d="M92.286,468.924a2.1,2.1,0,0,0,1.9-1.205l4.082-8.6a.1.1,0,0,1,.1-.058.106.106,0,0,1,.106.106v8.381a1.33,1.33,0,1,0,2.659,0V457.548A2.345,2.345,0,0,0,96.6,456.7l-4.218,8.9a.1.1,0,0,1-.1.063h0a.106.106,0,0,1-.1-.063l-4.218-8.9a2.345,2.345,0,0,0-4.528.849v10.006a1.372,1.372,0,0,0,1.373,1.371,1.3,1.3,0,0,0,1.286-1.371v-8.381a.106.106,0,0,1,.106-.106.1.1,0,0,1,.1.058l4.082,8.6a2.1,2.1,0,0,0,1.9,1.205Z" transform="translate(60.401 669)" fill="#f36a10"/>
    <path id="Контур_236" data-name="Контур 236" d="M152.1,457.868v9.727a1.329,1.329,0,0,0,2.659,0v-9.727h2.864a1.329,1.329,0,1,0,0-2.659H149.24a1.329,1.329,0,1,0,0,2.659Z" transform="translate(111.907 669)" fill="#f36a10"/>
    <path id="Контур_237" data-name="Контур 237" d="M169.439,462.068,173,457.341a1.328,1.328,0,1,0-2.121-1.6l-3.1,4.12-3.1-4.12a1.327,1.327,0,1,0-2.119,1.6l3.562,4.728-3.562,4.729a1.327,1.327,0,1,0,2.119,1.6l3.1-4.12,3.1,4.12A1.328,1.328,0,0,0,173,466.8Z" transform="translate(123.39 669.004)" fill="#f36a10"/>
    <path id="Контур_238" data-name="Контур 238" d="M133.574,463.748v-7.21a1.329,1.329,0,0,0-2.659,0v7.253a2.624,2.624,0,0,1-5.247-.043h0v-7.21a1.329,1.329,0,0,0-2.659,0v7.21l0,0a5.283,5.283,0,0,0,10.567,0Z" transform="translate(92.011 669)" fill="#f36a10"/>
    <path id="Контур_239" data-name="Контур 239" d="M116.828,468.3a1.628,1.628,0,0,0,1.31.621,1.714,1.714,0,0,0,1.713-1.7V456.375a1.307,1.307,0,0,0-1.329-1.166,1.33,1.33,0,0,0-1.329,1.329v7.37l0,0,0,.005a.1.1,0,0,1-.1.1.1.1,0,0,1-.079-.049h0l-5.668-8.023,0,0a1.711,1.711,0,0,0-3.118.961l0,10.687a1.329,1.329,0,1,0,2.659,0V460.21a.1.1,0,0,1,.1-.1.1.1,0,0,1,.079.049Z" transform="translate(80.197 669)" fill="#f36a10"/>
    <path id="Контур_240" data-name="Контур 240" d="M139.205,468.924a2.106,2.106,0,0,0,1.9-1.205l4.082-8.6a.1.1,0,0,1,.094-.058.105.105,0,0,1,.106.106v8.381a1.33,1.33,0,1,0,2.659,0V457.548a2.345,2.345,0,0,0-4.528-.849l-4.217,8.9a.109.109,0,0,1-.1.063h0a.108.108,0,0,1-.1-.063l-4.218-8.9a2.345,2.345,0,0,0-4.528.849v10.006a1.372,1.372,0,0,0,1.373,1.371,1.3,1.3,0,0,0,1.286-1.371l0-8.381a.105.105,0,0,1,.106-.106.1.1,0,0,1,.094.058l4.082,8.6a2.106,2.106,0,0,0,1.9,1.205Z" transform="translate(97.885 669)" fill="#f36a10"/>
    <path id="Контур_241" data-name="Контур 241" d="M153.5,467.071l-4.7-11.051a1.421,1.421,0,0,0-2.567,0l-4.7,11.051a1.329,1.329,0,1,0,2.447,1.038l.777-1.828h5.512l.777,1.828a1.329,1.329,0,1,0,2.447-1.038Zm-7.608-3.449,1.628-3.835,1.628,3.835Z" transform="translate(106.734 669)" fill="#f36a10"/>
    <path id="Контур_242" data-name="Контур 242" d="M104.217,463.52c0-.034.005-.041.04-.041h3.159a3.964,3.964,0,0,0,3.994-4.15,3.924,3.924,0,0,0-3.994-4.119h-4.494a1.328,1.328,0,0,0-1.364,1.382v11a1.329,1.329,0,1,0,2.659,0Zm3.231-2.7h-3.189a.078.078,0,0,1-.036-.005h0a.144.144,0,0,1,0-.036v-2.871c0-.036.005-.041.041-.041h3.189a1.315,1.315,0,0,1,1.3,1.43A1.4,1.4,0,0,1,107.448,460.822Z" transform="translate(74.875 669)" fill="#f36a10"/>
    <path id="Контур_243" data-name="Контур 243" d="M124.487,463.291a1.329,1.329,0,1,0,0-2.659h-5.665v-2.765h5.665a1.329,1.329,0,1,0,0-2.659h-6.994a1.327,1.327,0,0,0-1.223.811,1.314,1.314,0,0,0-.106.518v11.056h0a1.33,1.33,0,0,0,1.329,1.329h6.994a1.329,1.329,0,0,0,0-2.659h-5.665v-2.974Z" transform="translate(86.543 669)" fill="#f36a10"/>
    <path id="Контур_244" data-name="Контур 244" d="M163.765,463.291a1.329,1.329,0,1,0,0-2.659H158.1v-2.765h5.665a1.329,1.329,0,1,0,0-2.659H156.77a1.332,1.332,0,0,0-1.225.811,1.346,1.346,0,0,0-.1.518v11.056h0a1.33,1.33,0,0,0,1.329,1.329h6.994a1.329,1.329,0,1,0,0-2.659H158.1v-2.974Z" transform="translate(117.923 669)" fill="#f36a10"/>
  </g>
</svg>
