<svg xmlns="http://www.w3.org/2000/svg" width="30" height="29.998" viewBox="0 0 30 29.998">
  <g id="Сгруппировать_88" data-name="Сгруппировать 88" transform="translate(-115.195 -1152.107)">
    <g id="Сгруппировать_33" data-name="Сгруппировать 33" transform="translate(115.195 1152.107)">
      <path id="Контур_245" data-name="Контур 245" d="M87.2,498.106a15,15,0,1,1-15-15,15,15,0,0,1,15,15" transform="translate(-57.195 -483.107)" fill="#f36a10"/>
    </g>
    <g id="Сгруппировать_34" data-name="Сгруппировать 34" transform="translate(119.938 1157.391)">
      <path id="Контур_251" data-name="Контур 251" d="M73.1,503.05l-4.514-7.808,3.916-6.747a.894.894,0,0,0-1.547-.9l-4.173,7.195a.9.9,0,0,0,0,.9l4.773,8.255a.894.894,0,0,0,1.547-.895Z" transform="translate(-55.362 -485.582)" fill="#ececec"/>
      <path id="Контур_252" data-name="Контур 252" d="M70.061,492.848a.892.892,0,0,0-.773-.446h0l-8.318.008a.893.893,0,1,0,0,1.786h0l7.8-.008L73.286,502a.894.894,0,0,0,1.547-.895Z" transform="translate(-59.937 -481.936)" fill="#ececec"/>
      <path id="Контур_253" data-name="Контур 253" d="M60.887,495.22h0l8.374,0a.89.89,0,0,0,.774-.447l4.153-7.206a.893.893,0,1,0-1.547-.893l-3.9,6.761-7.857,0a.893.893,0,1,0,0,1.786Z" transform="translate(-59.994 -486.226)" fill="#ececec"/>
    </g>
  </g>
</svg>
