<svg xmlns="http://www.w3.org/2000/svg" width="61.161" height="13.823" viewBox="0 0 61.161 13.823">
  <g id="Сгруппировать_87" data-name="Сгруппировать 87" transform="translate(-138.291 -1157.017)">
    <path id="Контур_246" data-name="Контур 246" d="M82.97,489.357a1.339,1.339,0,1,0-2.679,0V500.5a1.339,1.339,0,1,0,2.679,0Z" transform="translate(58 669)" fill="#f36a10"/>
    <path id="Контур_247" data-name="Контур 247" d="M97.828,489.357a1.339,1.339,0,1,0-2.679,0V500.5a1.339,1.339,0,1,0,2.679,0Z" transform="translate(69.242 669)" fill="#f36a10"/>
    <path id="Контур_248" data-name="Контур 248" d="M92.307,501.84a2.12,2.12,0,0,0,1.915-1.214l4.114-8.664a.1.1,0,0,1,.095-.058.106.106,0,0,1,.107.107v8.448a1.341,1.341,0,1,0,2.681,0V490.374a2.363,2.363,0,0,0-4.564-.855L92.4,498.486a.106.106,0,0,1-.1.063h0a.106.106,0,0,1-.1-.063l-4.251-8.967a2.363,2.363,0,0,0-4.564.855v10.085a1.383,1.383,0,0,0,1.384,1.381,1.31,1.31,0,0,0,1.3-1.381v-8.448a.106.106,0,0,1,.107-.107.1.1,0,0,1,.095.058l4.114,8.664A2.12,2.12,0,0,0,92.3,501.84Z" transform="translate(60.346 669)" fill="#f36a10"/>
    <path id="Контур_249" data-name="Контур 249" d="M109,490.7v9.8a1.339,1.339,0,1,1-2.679,0v-9.8H103.43a1.34,1.34,0,1,1,0-2.681h8.451a1.34,1.34,0,1,1,0,2.681Z" transform="translate(74.494 669)" fill="#f36a10"/>
    <path id="Контур_250" data-name="Контур 250" d="M108.941,501.729a1.341,1.341,0,0,0,1.757-.71l.783-1.844h5.554l.783,1.844a1.34,1.34,0,0,0,2.466-1.047l-4.732-11.139a1.433,1.433,0,0,0-2.587,0l-4.734,11.139A1.342,1.342,0,0,0,108.941,501.729Zm3.677-5.233,1.641-3.865L115.9,496.5Z" transform="translate(79.06 669)" fill="#f36a10"/>
  </g>
</svg>
