<svg xmlns="http://www.w3.org/2000/svg" width="30" height="30" viewBox="0 0 30 30">
  <g id="Сгруппировать_79" data-name="Сгруппировать 79" transform="translate(-115.921 -942.4)">
    <path id="Контур_206" data-name="Контур 206" d="M82.76,283.406c-.273,2.639-.571,6.765-1.657,9.984a11.1,11.1,0,0,1-3.5,4.75,15.606,15.606,0,0,1-4.655,2.659,15.569,15.569,0,0,1-4.629-2.659,11.168,11.168,0,0,1-3.541-4.76,44.755,44.755,0,0,1-1.643-9.974c-.07-.855-.127-2.5-.127-2.5l9.944-3.224,9.944,3.224s-.072,1.875-.135,2.5M72.922,273.4a15,15,0,1,0,15,15,15,15,0,0,0-15-15" transform="translate(58 669)" fill="#bf0031"/>
    <path id="Контур_207" data-name="Контур 207" d="M77.28,279.666s-.055,1.456-.106,1.939a40.7,40.7,0,0,1-1.38,8.06,8.275,8.275,0,0,1-2.629,3.628,14.625,14.625,0,0,1-3.539,2.163V277.162ZM61.013,281.22a41.147,41.147,0,0,0,1.545,8.9,9.42,9.42,0,0,0,3,4.108,15.685,15.685,0,0,0,4.06,2.43,16.1,16.1,0,0,0,4.077-2.44,9.354,9.354,0,0,0,2.972-4.1,46.173,46.173,0,0,0,1.558-9.1c.055-.544.119-2.191.119-2.191L69.622,276,60.9,278.826s.051,1.645.112,2.394" transform="translate(61.328 671.903)" fill="#bf0031"/>
  </g>
</svg>
