<svg xmlns="http://www.w3.org/2000/svg" width="39" height="39" viewBox="0 0 39 39">
  <g id="Сгруппировать_250" data-name="Сгруппировать 250" transform="translate(-1606.18 -716.562)">
    <g id="Сгруппировать_245" data-name="Сгруппировать 245" transform="translate(1617.207 727.59)">
      <path id="Контур_296" data-name="Контур 296" d="M302.392,431.239l-2.486-4.8s-1.393.685-1.457.714c-1.582.767-4.8-5.521-3.254-6.351l1.47-.724-2.465-4.813-1.487.734c-1.157.6-1.633,1.881-1.616,3.47.053,4.906,4.808,12.759,8.691,12.74a2.693,2.693,0,0,0,1.115-.244c.086-.039,1.485-.727,1.49-.729Zm-1.765-9.617a1.059,1.059,0,1,1-1.059,1.059,1.06,1.06,0,0,1,1.059-1.059Zm6.354,0a1.059,1.059,0,1,1-1.059,1.059,1.06,1.06,0,0,1,1.059-1.059Zm-3.177,0a1.059,1.059,0,1,1-1.059,1.059,1.06,1.06,0,0,1,1.059-1.059Z" transform="translate(-291.096 -415.267)" fill="#bd061b" fill-rule="evenodd"/>
    </g>
    <g id="Эллипс_38" data-name="Эллипс 38" transform="translate(1606.18 716.562)" fill="none" stroke="#bd061b" stroke-width="2">
      <circle cx="19.5" cy="19.5" r="19.5" stroke="none"/>
      <circle cx="19.5" cy="19.5" r="18.5" fill="none"/>
    </g>
  </g>
</svg>
