<svg id="error" xmlns="http://www.w3.org/2000/svg" width="18.293" height="18.293" viewBox="0 0 18.293 18.293">
  <g id="Сгруппировать_257" data-name="Сгруппировать 257">
    <path id="Контур_302" data-name="Контур 302" d="M9.146,0a9.146,9.146,0,1,0,9.146,9.146A9.157,9.157,0,0,0,9.146,0Zm3.7,11.768a.381.381,0,0,1,0,.539l-.539.539a.381.381,0,0,1-.539,0L9.146,10.224,6.525,12.846a.381.381,0,0,1-.539,0l-.539-.539a.381.381,0,0,1,0-.539L8.069,9.146,5.447,6.525a.381.381,0,0,1,0-.539l.539-.539a.381.381,0,0,1,.539,0L9.146,8.069l2.622-2.622a.381.381,0,0,1,.539,0l.539.539a.381.381,0,0,1,0,.539L10.224,9.146Z" fill="#be1d25"/>
  </g>
</svg>
