<svg xmlns="http://www.w3.org/2000/svg" width="18.271" height="13.704" viewBox="0 0 18.271 13.704">
  <g id="Сгруппировать_256" data-name="Сгруппировать 256" transform="translate(481.182 394.507)">
    <path id="Вычитание_1" data-name="Вычитание 1" d="M11.986,8.65h-6.7a1.467,1.467,0,0,1-.424-.062,1.448,1.448,0,0,1-.378-.177,1.418,1.418,0,0,1-.309-.276,1.384,1.384,0,0,1-.217-.36L1.366,1.493A.988.988,0,0,0,1,1.093,1.026,1.026,0,0,0,.462.944H0V.029L17.271,0V.944H16.81a1.025,1.025,0,0,0-.533.149.989.989,0,0,0-.371.4L13.314,7.776a1.387,1.387,0,0,1-.217.36,1.418,1.418,0,0,1-.309.276,1.448,1.448,0,0,1-.378.177A1.466,1.466,0,0,1,11.986,8.65ZM2.232.944,5.111,7.72h7.062L15.118.944H2.232Z" transform="translate(-480.682 -389.954)" fill="#303030" stroke="rgba(0,0,0,0)" stroke-miterlimit="10" stroke-width="1"/>
    <path id="Контур_293" data-name="Контур 293" d="M-318.324-390.4l3.871-3.893a.74.74,0,0,1,.519-.209.724.724,0,0,1,.734.721c0,.175-.483.134-.632.279l-3.07,3.1Z" transform="translate(-159.737 0)" fill="#303030" fill-rule="evenodd"/>
    <path id="Контур_294" data-name="Контур 294" d="M133.037-390.4l-3.07-3.1c-.149-.145-.632-.1-.632-.279a.724.724,0,0,1,.734-.721.739.739,0,0,1,.519.209l3.871,3.893Z" transform="translate(-600.169 0)" fill="#303030" fill-rule="evenodd"/>
  </g>
</svg>
