<svg xmlns="http://www.w3.org/2000/svg" width="39" height="39" viewBox="0 0 39 39">
  <g id="Сгруппировать_251" data-name="Сгруппировать 251" transform="translate(-1207 -710)">
    <g id="Контур_299" data-name="Контур 299" transform="translate(1207 710)" fill="none">
      <path d="M19.5,0A19.5,19.5,0,1,1,0,19.5,19.5,19.5,0,0,1,19.5,0Z" stroke="none"/>
      <path d="M 19.4998779296875 1.999996185302734 C 14.82548713684082 1.999996185302734 10.43087768554688 3.820297241210938 7.125587463378906 7.125587463378906 C 3.820297241210938 10.43087768554688 1.999996185302734 14.82548713684082 1.999996185302734 19.4998779296875 C 1.999996185302734 24.17426681518555 3.820297241210938 28.56886672973633 7.12559700012207 31.8741569519043 C 10.43088722229004 35.17944717407227 14.82548713684082 36.99975967407227 19.4998779296875 36.99975967407227 C 24.17425918579102 36.99975967407227 28.56886672973633 35.17944717407227 31.8741569519043 31.8741569519043 C 35.17944717407227 28.56886672973633 36.99975967407227 24.17425918579102 36.99975967407227 19.4998779296875 C 36.99975967407227 14.82548713684082 35.17944717407227 10.43088722229004 31.8741569519043 7.12559700012207 C 28.56886672973633 3.820297241210938 24.17426681518555 1.999996185302734 19.4998779296875 1.999996185302734 M 19.4998779296875 -3.814697265625e-06 C 30.26935768127441 -3.814697265625e-06 38.99975967407227 8.730388641357422 38.99975967407227 19.4998779296875 C 38.99975967407227 30.26935768127441 30.26935768127441 38.99975967407227 19.4998779296875 38.99975967407227 C 8.730388641357422 38.99975967407227 -3.814697265625e-06 30.26935768127441 -3.814697265625e-06 19.4998779296875 C -3.814697265625e-06 8.730388641357422 8.730388641357422 -3.814697265625e-06 19.4998779296875 -3.814697265625e-06 Z" stroke="none" fill="#bd061b"/>
    </g>
    <path id="speech-bubble-3" d="M8.981,1C4.238,1,0,4.163,0,8.49A6.6,6.6,0,0,0,1.532,12.7,11.759,11.759,0,0,1,.04,17.466a21.6,21.6,0,0,0,5.971-1.9C12.924,17.25,17.963,13.02,17.963,8.49,17.963,4.14,13.7,1,8.981,1ZM5.239,9.607A1.123,1.123,0,1,1,6.362,8.484,1.122,1.122,0,0,1,5.239,9.607Zm3.742,0A1.123,1.123,0,1,1,10.1,8.484,1.122,1.122,0,0,1,8.981,9.607Zm3.742,0a1.123,1.123,0,1,1,1.123-1.123A1.123,1.123,0,0,1,12.724,9.607Z" transform="translate(1217.518 720.524)" fill="#c00"/>
  </g>
</svg>
