<svg xmlns="http://www.w3.org/2000/svg" xmlns:xlink="http://www.w3.org/1999/xlink" width="118.911" height="54.804" viewBox="0 0 118.911 54.804">
  <defs>
    <filter id="Контур_21947" x="0" y="0" width="50.059" height="54.804" filterUnits="userSpaceOnUse">
      <feOffset dx="3" dy="4" input="SourceAlpha"/>
      <feGaussianBlur stdDeviation="1.5" result="blur"/>
      <feFlood flood-opacity="0.161"/>
      <feComposite operator="in" in2="blur"/>
      <feComposite in="SourceGraphic"/>
    </filter>
  </defs>
  <g id="Сгруппировать_8312" data-name="Сгруппировать 8312" transform="translate(-146.337 -2351.385)">
    <g id="Сгруппировать_8311" data-name="Сгруппировать 8311" transform="translate(147.837 2351.885)">
      <g id="Сгруппировать_8306" data-name="Сгруппировать 8306" transform="translate(0 0)">
        <g transform="matrix(1, 0, 0, 1, -1.5, -0.5)" filter="url(#Контур_21947)">
          <path id="Контур_21947-2" data-name="Контур 21947" d="M32.112,0a4.463,4.463,0,0,1,3.87,2.24l9.229,16.067a4.463,4.463,0,0,1,0,4.446L35.982,38.819a4.463,4.463,0,0,1-3.87,2.24H13.692a4.463,4.463,0,0,1-3.87-2.24L.593,22.753a4.463,4.463,0,0,1,0-4.446L9.822,2.24A4.463,4.463,0,0,1,13.692,0Z" transform="translate(1.5 46.3) rotate(-90)" fill="#29363c"/>
        </g>
        <path id="Вычитание_17" data-name="Вычитание 17" d="M11.791,35.051a4.064,4.064,0,0,1-1.26-7.934,5.9,5.9,0,0,0,.294-.583c.987-2.248,1.766-5.6,1.462-6.3a.419.419,0,0,0-.124-.269,1.711,1.711,0,0,0-1.292-.615c-.6,0-1.5.348-2.414,2.005l-.2.359,0,.007-.122.222a3.623,3.623,0,1,1-2.449-2.971,10.653,10.653,0,0,0,3.092-1.292,5.569,5.569,0,0,0,2-1.821.867.867,0,0,0,.087-.744c-.175-.414-.632-.623-1.36-.623a8.572,8.572,0,0,0-2.439.477,3.618,3.618,0,1,1-.827-3.657,13.574,13.574,0,0,0,1.659.116,9.1,9.1,0,0,0,1.128-.068c2.552-.316,3.315-1.268,3.322-1.277C12.4,10.02,17.3,3.687,18.315,0l7.566,4.35c-1.9,1.458-3.052,3.847-4.162,6.157-.316.658-.614,1.279-.927,1.873-1.138,2.158-.653,3.171.151,4.85a19.341,19.341,0,0,1,1.083,2.624,3.67,3.67,0,0,0,.376.814,3.666,3.666,0,0,1,.728-.073A3.614,3.614,0,1,1,19.5,24.209a3.57,3.57,0,0,1,.35-1.551c-.082-.211-.125-.337-.125-.338s-.378-1.445-.892-1.786a.939.939,0,0,0-.517-.206c-.386,0-1.025.328-2.555,2.886A7.2,7.2,0,0,0,14.5,27.244a5.289,5.289,0,0,0,.022.717,4.062,4.062,0,0,1-2.728,7.09Z" transform="translate(9.595 3.552)" fill="#be1d25"/>
      </g>
    </g>
    <path id="Вычитание_18" data-name="Вычитание 18" d="M6.627-.532A6.532,6.532,0,0,0-.023,6.232a6.516,6.516,0,0,0,6.65,6.745,6.423,6.423,0,0,0,6.5-5.928V5.719H6V7.125h5.282a4.465,4.465,0,0,1-4.655,4.294c-2.793,0-4.883-2.014-4.883-5.187,0-3.192,2.09-5.206,4.883-5.206a4.225,4.225,0,0,1,4.028,2.432h2.071A6.261,6.261,0,0,0,6.627-.532ZM22.492,3.515c0,1.482-.855,2.546-2.812,2.546H17.134V1.045H19.68C21.656,1.045,22.492,2.014,22.492,3.515ZM15.405-.38V12.863h1.729V7.448h2.09l3.154,5.415h2.071L21.124,7.315a3.734,3.734,0,0,0,3.154-3.8c0-2.166-1.482-3.895-4.6-3.895ZM26.957,12.863h1.729V-.38H26.957Zm4.028-6.631A6.5,6.5,0,0,0,37.6,12.977a6.228,6.228,0,0,0,6.137-3.971H41.663a4.179,4.179,0,0,1-4.066,2.47c-2.774,0-4.845-2.014-4.845-5.244,0-3.249,2.071-5.263,4.845-5.263a4.166,4.166,0,0,1,4.066,2.489h2.071A6.234,6.234,0,0,0,37.6-.551,6.529,6.529,0,0,0,30.985,6.232Zm27.968,0a6.651,6.651,0,1,0-13.3,0,6.651,6.651,0,1,0,13.3,0Zm-11.533,0C47.42,2.983,49.51.969,52.3.969s4.883,2.014,4.883,5.263c0,3.23-2.09,5.263-4.883,5.263S47.42,9.462,47.42,6.232ZM69.916-.4V10.127L62.962-.4H61.233V12.863h1.729V2.318l6.954,10.545h1.729V-.4Z" transform="translate(193.103 2374.123)" fill="#29363c" stroke="rgba(0,0,0,0)" stroke-miterlimit="10" stroke-width="1"/>
    <path id="Вычитание_19" data-name="Вычитание 19" d="M6.3,5.824h.72V3.24A1.7,1.7,0,0,0,5.243,1.36a1.623,1.623,0,0,0-1.552.976A1.65,1.65,0,0,0,2.083,1.36,1.585,1.585,0,0,0,.7,2.072V1.44H-.029V5.824H.7V3.408c0-.944.5-1.416,1.24-1.416.72,0,1.2.456,1.2,1.352v2.48h.72V3.408c0-.944.5-1.416,1.24-1.416.72,0,1.2.456,1.2,1.352Zm1.64-2.208A2.108,2.108,0,0,0,10.011,5.9a1.831,1.831,0,0,0,1.64-.888v.816h.736V1.44h-.736v.8a1.819,1.819,0,0,0-1.632-.872A2.078,2.078,0,0,0,7.939,3.616Zm3.712.008a1.491,1.491,0,1,1-2.968-.008A1.48,1.48,0,0,1,10.163,2,1.5,1.5,0,0,1,11.651,3.624Zm1.7-.008a2.11,2.11,0,0,0,2.08,2.28A1.8,1.8,0,0,0,17.059,5v.824H17.8V-.1h-.736v2.32a1.912,1.912,0,0,0-1.624-.856A2.079,2.079,0,0,0,13.347,3.616Zm3.712.008a1.491,1.491,0,1,1-2.968-.008A1.48,1.48,0,0,1,15.571,2,1.5,1.5,0,0,1,17.059,3.624Zm3.832-1.64a1.286,1.286,0,0,1,1.384,1.328H19.507A1.358,1.358,0,0,1,20.891,1.984Zm2.048,2.488h-.784a1.2,1.2,0,0,1-1.232.808A1.378,1.378,0,0,1,19.5,3.9H23a3.947,3.947,0,0,0,.024-.44,2.01,2.01,0,0,0-2.1-2.1,2.086,2.086,0,0,0-2.168,2.256A2.112,2.112,0,0,0,20.923,5.9,1.971,1.971,0,0,0,22.939,4.472Zm3.912-2.216V-.1h-.728v5.92h.728V5.016a1.829,1.829,0,0,0,1.64.88,2.11,2.11,0,0,0,2.08-2.28,2.073,2.073,0,0,0-2.08-2.248A1.857,1.857,0,0,0,26.851,2.256Zm2.976,1.36a1.495,1.495,0,1,1-2.976.008A1.507,1.507,0,0,1,28.339,2,1.482,1.482,0,0,1,29.827,3.616ZM33.2,4.992,31.819,1.44h-.808l1.768,4.336-.864,2.112h.752l2.64-6.448h-.752Z" transform="translate(193.11 2362.024)" fill="#29363c" stroke="rgba(0,0,0,0)" stroke-miterlimit="10" stroke-width="1"/>
  </g>
</svg>
