<svg xmlns="http://www.w3.org/2000/svg" width="13.528" height="11.665" viewBox="0 0 13.528 11.665">
  <defs>
    <style>
      .cls-1 {
        fill: #303030;
      }
    </style>
  </defs>
  <g id="home" transform="translate(0 -17.319)">
    <path id="Контур_265" data-name="Контур 265" class="cls-1" d="M44.033,135.551a.4.4,0,0,0-.4.4v4.094H35.441v-4.094a.4.4,0,0,0-.807,0v4.5a.4.4,0,0,0,.4.4h9a.4.4,0,0,0,.4-.4v-4.5A.4.4,0,0,0,44.033,135.551Z" transform="translate(-32.771 -111.872)"/>
    <path id="Контур_266" data-name="Контур 266" class="cls-1" d="M13.41,23.8l-6.361-6.36a.4.4,0,0,0-.571,0L.118,23.8a.4.4,0,0,0,.571.571l6.075-6.075,6.076,6.075a.4.4,0,1,0,.57-.571Z" transform="translate(0)"/>
  </g>
</svg>