<svg xmlns="http://www.w3.org/2000/svg" xmlns:xlink="http://www.w3.org/1999/xlink" width="57" height="57" viewBox="0 0 57 57">
  <defs>
    <filter id="Контур_308" x="0" y="0" width="57" height="57" filterUnits="userSpaceOnUse">
      <feOffset dx="3" input="SourceAlpha"/>
      <feGaussianBlur stdDeviation="3" result="blur"/>
      <feFlood flood-opacity="0.322"/>
      <feComposite operator="in" in2="blur"/>
      <feComposite in="SourceGraphic"/>
    </filter>
  </defs>
  <g id="Сгруппировать_316" data-name="Сгруппировать 316" transform="translate(-134 -2352)">
    <g transform="matrix(1, 0, 0, 1, 134, 2352)" filter="url(#Контур_308)">
      <path id="Контур_308-2" data-name="Контур 308" d="M0,0H39V39H0Z" transform="translate(6 9)" fill="#fff"/>
    </g>
    <g id="Сгруппировать_313" data-name="Сгруппировать 313" transform="translate(145.084 2372.714)">
      <text id="CORP." transform="translate(26.917 15.286) rotate(-90)" fill="#be1d25" font-size="5" font-family="GothamPro-Bold, Gotham Pro" font-weight="700" letter-spacing="-0.01em"><tspan x="0" y="0">CORP.</tspan></text>
      <g id="Сгруппировать_312" data-name="Сгруппировать 312" transform="translate(0 0)">
        <path id="Контур_1" data-name="Контур 1" d="M3.735,3.392l3.239,0v6.677A2.429,2.429,0,0,1,6.5,11.61a1.91,1.91,0,0,1-1.539.523A3.653,3.653,0,0,1,2.292,10.61C1.751,11.2.631,12.444.02,13.115a7.255,7.255,0,0,0,1.422,1.357,7.315,7.315,0,0,0,6.142.757,4.623,4.623,0,0,0,2.435-1.718,5.7,5.7,0,0,0,.948-3.2L10.95,0,5.46,0,3.735,3.392Z" transform="translate(-0.02 0)" fill="#be1d25" fill-rule="evenodd"/>
        <path id="Контур_2" data-name="Контур 2" d="M603.419,6.118a4.221,4.221,0,0,0,1.038,2.93c1.538,1.644,3.732,1.778,5.516,2.848.442.265.841.76.55,1.289-.546.992-2.932.4-3.749.055a6.289,6.289,0,0,1-1.484-.88c-.306.3-1.94,2.12-2.46,2.7a9.291,9.291,0,0,0,5.875,2.084,7.073,7.073,0,0,0,4.77-1.8,4.174,4.174,0,0,0,.459-5.39c-1.558-2.048-5.72-2.461-6.385-3.553-.362-.593.192-1.391,1.222-1.461a6.824,6.824,0,0,1,3.306,1.051c.319-.348,1.729-1.888,2.179-2.385a6.9,6.9,0,0,0-4.874-1.982c-2.745.031-5.75,1.465-5.963,4.5Z" transform="translate(-591.928 -1.591)" fill="#be1d25" fill-rule="evenodd"/>
      </g>
    </g>
  </g>
</svg>
