<svg xmlns="http://www.w3.org/2000/svg" width="17.773" height="12.091" viewBox="0 0 17.773 12.091">
  <g id="mail" transform="translate(0 -38.529)">
    <path id="Контур_267" data-name="Контур 267" d="M42.431,68.666l-5.755,5.072-5.757-5.072a.553.553,0,1,0-.731.83L36.31,74.89a.553.553,0,0,0,.731,0L43.162,69.5a.553.553,0,1,0-.731-.83Z" transform="translate(-27.789 -27.787)" fill="#303030"/>
    <path id="Контур_268" data-name="Контур 268" d="M16.114,38.529H1.659A1.661,1.661,0,0,0,0,40.188v8.774A1.661,1.661,0,0,0,1.659,50.62H16.114a1.661,1.661,0,0,0,1.659-1.659V40.188A1.661,1.661,0,0,0,16.114,38.529Zm.553,10.432a.554.554,0,0,1-.553.553H1.659a.554.554,0,0,1-.553-.553V40.188a.554.554,0,0,1,.553-.553H16.114a.554.554,0,0,1,.553.553Z" fill="#303030"/>
  </g>
</svg>
