<svg xmlns="http://www.w3.org/2000/svg" width="15.078" height="15.51" viewBox="0 0 15.078 15.51">
  <g id="phone-call" transform="translate(-2.949)">
    <path id="Контур_269" data-name="Контур 269" d="M111.972,2.032A6.892,6.892,0,0,0,107.067,0a.55.55,0,1,0,0,1.1A5.838,5.838,0,0,1,112.9,6.937a.55.55,0,0,0,1.1,0A6.892,6.892,0,0,0,111.972,2.032Z" transform="translate(-95.977)" fill="#303030"/>
    <path id="Контур_270" data-name="Контур 270" d="M109.711,47.322a.55.55,0,0,0,1.1,0,3.748,3.748,0,0,0-3.744-3.743h0a.55.55,0,0,0,0,1.1A2.648,2.648,0,0,1,109.711,47.322Z" transform="translate(-95.977 -40.384)" fill="#303030"/>
    <path id="Контур_271" data-name="Контур 271" d="M12.517,39.243a1.659,1.659,0,0,0-1.469.879.55.55,0,1,0,.907.621c.242-.354.351-.409.5-.4A7.08,7.08,0,0,1,14.992,42.2a.569.569,0,0,1-.005.4,1.9,1.9,0,0,1-.942,1.186,1.764,1.764,0,0,1-1.413-.048,15.535,15.535,0,0,1-5.1-3.318l0,0a15.533,15.533,0,0,1-3.312-5.089,1.764,1.764,0,0,1-.048-1.413,1.9,1.9,0,0,1,1.186-.942.568.568,0,0,1,.4-.006A7.093,7.093,0,0,1,7.621,35.5c.008.154-.048.264-.4.505a.55.55,0,0,0,.62.908,1.658,1.658,0,0,0,.879-1.471,6.729,6.729,0,0,0-2.572-3.5,1.662,1.662,0,0,0-1.135-.007,2.958,2.958,0,0,0-1.835,1.526,2.829,2.829,0,0,0,.029,2.286A16.626,16.626,0,0,0,6.759,41.2l.011.011a16.63,16.63,0,0,0,5.448,3.548,3.261,3.261,0,0,0,1.227.256,2.52,2.52,0,0,0,1.058-.227,2.958,2.958,0,0,0,1.526-1.835,1.662,1.662,0,0,0-.006-1.133A6.727,6.727,0,0,0,12.517,39.243Z" transform="translate(0 -29.503)" fill="#303030"/>
  </g>
</svg>
