<svg xmlns="http://www.w3.org/2000/svg" width="39" height="39" viewBox="0 0 39 39">
  <g id="Сгруппировать_255" data-name="Сгруппировать 255" transform="translate(-1482 -710)">
    <g id="Контур_300" data-name="Контур 300" transform="translate(1482 710)" fill="none">
      <path d="M19.5,0A19.5,19.5,0,1,1,0,19.5,19.5,19.5,0,0,1,19.5,0Z" stroke="none"/>
      <path d="M 19.4998779296875 1.999996185302734 C 14.82548713684082 1.999996185302734 10.43087768554688 3.820297241210938 7.125587463378906 7.125587463378906 C 3.820297241210938 10.43087768554688 1.999996185302734 14.82548713684082 1.999996185302734 19.4998779296875 C 1.999996185302734 24.17426681518555 3.820297241210938 28.56886672973633 7.12559700012207 31.8741569519043 C 10.43088722229004 35.17944717407227 14.82548713684082 36.99975967407227 19.4998779296875 36.99975967407227 C 24.17425918579102 36.99975967407227 28.56886672973633 35.17944717407227 31.8741569519043 31.8741569519043 C 35.17944717407227 28.56886672973633 36.99975967407227 24.17425918579102 36.99975967407227 19.4998779296875 C 36.99975967407227 14.82548713684082 35.17944717407227 10.43088722229004 31.8741569519043 7.12559700012207 C 28.56886672973633 3.820297241210938 24.17426681518555 1.999996185302734 19.4998779296875 1.999996185302734 M 19.4998779296875 -3.814697265625e-06 C 30.26935768127441 -3.814697265625e-06 38.99975967407227 8.730388641357422 38.99975967407227 19.4998779296875 C 38.99975967407227 30.26935768127441 30.26935768127441 38.99975967407227 19.4998779296875 38.99975967407227 C 8.730388641357422 38.99975967407227 -3.814697265625e-06 30.26935768127441 -3.814697265625e-06 19.4998779296875 C -3.814697265625e-06 8.730388641357422 8.730388641357422 -3.814697265625e-06 19.4998779296875 -3.814697265625e-06 Z" stroke="none" fill="#bd061b"/>
    </g>
    <g id="email" transform="translate(1493.689 724.177)">
      <g id="Сгруппировать_247" data-name="Сгруппировать 247" transform="translate(0.558 0)">
        <g id="Сгруппировать_246" data-name="Сгруппировать 246" transform="translate(0 0)">
          <path id="Контур_297" data-name="Контур 297" d="M31.574,68.267H17.067l7.254,5.975,7.336-5.958A.5.5,0,0,0,31.574,68.267Z" transform="translate(-17.067 -68.267)" fill="#bd061b"/>
        </g>
      </g>
      <g id="Сгруппировать_249" data-name="Сгруппировать 249" transform="translate(0 0.985)">
        <g id="Сгруппировать_248" data-name="Сгруппировать 248" transform="translate(0 0)">
          <path id="Контур_298" data-name="Контур 298" d="M8.164,104.549a.558.558,0,0,1-.707,0L0,98.406v9.616a.558.558,0,0,0,.558.558H15.065a.558.558,0,0,0,.558-.558V98.489Z" transform="translate(0 -98.406)" fill="#bd061b"/>
        </g>
      </g>
    </g>
  </g>
</svg>
